<?xml version="1.0" encoding="UTF-8"?>
<svg width="200px" height="29px" viewBox="0 0 200 29" version="1.1" xmlns="http://www.w3.org/2000/svg" xmlns:xlink="http://www.w3.org/1999/xlink">
    <!-- Generator: Sketch 47.1 (45422) - http://www.bohemiancoding.com/sketch -->
    <title>calmer-choice-logo</title>
    <desc>Created with Sketch.</desc>
    <defs></defs>
    <g id="Page-1" stroke="none" stroke-width="1" fill="none" fill-rule="evenodd">
        <g id="calmer-choice-logo" fill-rule="nonzero">
            <g id="Group" transform="translate(166.666667, 0.000000)">
                <path d="M31.9642857,15.1785714 C29.7619048,15.5952381 27.5595238,16.0119048 25.3571429,16.4285714 C23.75,16.7261905 22.202381,17.0238095 20.5952381,17.3214286 C20.2380952,17.3809524 20.1785714,17.6785714 20.1190476,17.9166667 C19.2261905,21.1309524 18.3928571,24.4047619 17.5,27.6190476 C17.5,27.6785714 17.4404762,27.6785714 17.3214286,27.8571429 C17.5595238,26.9047619 17.5,26.0714286 17.5595238,25.2380952 C17.8571429,22.0833333 18.0357143,18.9285714 17.6785714,15.7738095 C17.6190476,15.1785714 17.7380952,15.1190476 18.2738095,15.1785714 C20.8928571,15.5357143 23.5714286,15.297619 26.1904762,15.297619 C27.9166667,15.297619 29.702381,15.1190476 31.4285714,15 C31.6071429,15 32.202381,15 32.3809524,15 C32.4404762,15.0595238 32.202381,15.1190476 31.9642857,15.1785714" id="Shape" fill="#2481B6"></path>
                <path d="M16.25,28.452381 C14.6428571,26.4880952 12.9761905,24.5238095 11.3690476,22.5 C11.0119048,22.0238095 10.7738095,22.0833333 10.4166667,22.4404762 C8.03571429,24.3452381 5.6547619,26.25 3.33333333,28.1547619 C3.21428571,28.2142857 3.1547619,28.2738095 2.97619048,28.3333333 C6.19047619,24.8214286 9.58333333,21.547619 12.4404762,17.6785714 C13.0357143,21.1904762 14.5833333,24.3452381 16.0119048,27.5595238 C16.1309524,27.8571429 16.6071429,28.6309524 16.6071429,28.9285714 C16.6666667,28.8690476 16.547619,28.6904762 16.25,28.452381" id="Shape" fill="#34BDB6"></path>
                <path d="M32.8571429,2.97619048 C30.6547619,4.94047619 28.5119048,6.9047619 26.3095238,8.86904762 C25.6547619,9.46428571 25.6547619,9.46428571 26.4285714,9.94047619 C28.5714286,11.1904762 30.6547619,12.4404762 32.797619,13.6904762 C32.9166667,13.75 33.1547619,13.8095238 33.2142857,14.1666667 C29.047619,12.8571429 25,11.3095238 20.5952381,10.7738095 C24.9404762,8.45238095 28.8095238,5.5952381 32.797619,2.85714286 C32.797619,2.85714286 32.797619,2.91666667 32.8571429,2.97619048" id="Shape" fill="#34BDB6"></path>
                <path d="M8.45238095,17.202381 C7.61904762,18.5714286 6.78571429,19.8809524 6.01190476,21.3095238 C5.05952381,22.9166667 4.16666667,24.5833333 3.27380952,26.1904762 C3.21428571,26.3095238 3.1547619,26.3690476 2.91666667,26.4285714 C3.45238095,25.0595238 4.04761905,23.6309524 4.58333333,22.2619048 C4.82142857,21.6666667 5.05952381,21.0714286 5.29761905,20.4761905 C5.41666667,20.1785714 5.29761905,19.9404762 4.94047619,19.9404762 C4.10714286,20 3.21428571,20.0595238 2.38095238,20.1785714 C1.8452381,20.2380952 1.36904762,20.2380952 0.833333333,20.2380952 C3.45238095,19.2857143 6.01190476,18.3333333 8.45238095,17.202381" id="Shape" fill="#2481B6"></path>
                <path d="M22.5595238,21.7261905 C22.0238095,21.6666667 21.4880952,21.4285714 21.1309524,20.8928571 C20.8333333,20.3571429 21.0119048,19.9404762 21.25,19.4642857 C21.7857143,18.5119048 22.6785714,18.0952381 23.6309524,17.9166667 C24.2857143,17.797619 24.8214286,18.1547619 25.1785714,18.75 C25.5952381,19.4642857 25.1190476,20 24.7619048,20.4761905 C24.2857143,21.25 23.452381,21.6071429 22.5595238,21.7261905" id="Shape" fill="#2481B6"></path>
                <path d="M23.75,0.654761905 C23.6309524,1.54761905 23.5119048,2.5 23.3333333,3.39285714 C23.3333333,3.57142857 23.2738095,3.80952381 23.2142857,3.98809524 C23.0952381,4.58333333 23.3928571,4.76190476 23.9285714,4.58333333 C25.8333333,4.04761905 27.7380952,3.51190476 29.6428571,2.91666667 C29.8214286,2.85714286 30,2.73809524 30.3571429,2.91666667 C26.8452381,4.4047619 23.3928571,5.71428571 20.0595238,7.38095238 C21.4285714,5.23809524 22.5,2.91666667 23.75,0.654761905" id="Shape" fill="#2481B6"></path>
                <path d="M16.0714286,7.85714286 C15.7142857,6.30952381 14.702381,5.17857143 13.75,3.98809524 C14.5238095,3.75 15.1190476,4.16666667 15.5952381,4.46428571 C16.6666667,5.05952381 17.4404762,4.88095238 18.2738095,4.04761905 C19.4047619,2.97619048 20.6547619,2.08333333 21.8452381,1.07142857 C21.9642857,0.952380952 22.6190476,0.476190476 22.797619,0.416666667 C20.7738095,2.73809524 18.0357143,5.29761905 16.0714286,7.85714286" id="Shape" fill="#34BDB6"></path>
                <path d="M1.72619048,18.5119048 C2.91666667,17.3809524 4.16666667,16.3095238 5.35714286,15.1785714 C5.71428571,14.8809524 5.77380952,14.6428571 5.53571429,14.2261905 C5,13.3928571 4.58333333,12.5595238 3.98809524,11.4880952 C5.6547619,12.5595238 7.08333333,13.5119048 9.04761905,13.8690476 C6.54761905,15.4166667 4.16666667,16.9642857 1.8452381,18.6309524 C1.8452381,18.6309524 -1.19047619,21.0119048 1.72619048,18.5119048" id="Shape" fill="#34BDB6"></path>
                <path d="M29.4047619,9.88095238 C28.9880952,9.82142857 28.3928571,9.94047619 28.1547619,9.3452381 C27.9166667,8.75 28.2142857,8.27380952 28.6309524,7.91666667 C29.4642857,7.14285714 30.4166667,6.66666667 31.6071429,6.9047619 C32.5,7.08333333 32.6785714,7.73809524 32.202381,8.51190476 C31.7261905,9.28571429 30.4761905,9.88095238 29.4047619,9.88095238" id="Shape" fill="#34BDB6"></path>
                <path d="M10.4166667,24.047619 C11.1309524,24.047619 11.4285714,24.3452381 11.4880952,25.0595238 C11.547619,26.1904762 10.4166667,27.5595238 9.3452381,27.7380952 C8.39285714,27.8571429 7.91666667,27.5 7.97619048,26.547619 C8.03571429,25.297619 9.28571429,24.047619 10.4166667,24.047619" id="Shape" fill="#34BDB6"></path>
                <path d="M6.25,10.297619 C7.26190476,9.94047619 8.33333333,9.58333333 9.4047619,9.22619048 C10,9.04761905 10.4166667,8.69047619 10.7142857,8.0952381 C11.1904762,7.08333333 11.7261905,6.07142857 12.3214286,4.88095238 C12.202381,6.07142857 11.9047619,7.02380952 11.7857143,8.03571429 C11.7261905,8.51190476 11.7261905,9.04761905 11.6666667,9.52380952 C11.6666667,9.76190476 11.6666667,10 11.3095238,10 C9.64285714,9.94047619 7.97619048,10.2380952 6.30952381,10.4761905 C6.25,10.4166667 6.25,10.3571429 6.25,10.297619" id="Shape" fill="#2481B6"></path>
                <path d="M3.39285714,21.0119048 C3.75,21.0714286 3.92857143,21.3690476 3.80952381,21.7857143 C3.57142857,22.7380952 2.91666667,23.3333333 2.02380952,23.75 C1.66666667,23.9285714 1.25,23.8095238 1.25,23.2142857 C1.25,22.5 2.55952381,21.0119048 3.39285714,21.0119048" id="Shape" fill="#2481B6"></path>
                <path d="M25.2380952,3.33333333 C25,3.33333333 24.702381,3.33333333 24.5833333,3.03571429 C24.4642857,2.73809524 24.6428571,2.55952381 24.8214286,2.38095238 C25.3571429,1.78571429 26.0119048,1.30952381 26.8452381,1.19047619 C27.1428571,1.13095238 27.4404762,1.13095238 27.6785714,1.42857143 C27.9761905,1.78571429 27.5595238,1.96428571 27.4404762,2.14285714 C27.202381,2.67857143 25.8928571,3.33333333 25.2380952,3.33333333" id="Shape" fill="#2481B6"></path>
                <path d="M4.22619048,13.9285714 C4.46428571,13.9880952 4.76190476,14.047619 4.58333333,14.5238095 C4.28571429,15.297619 3.75,15.7738095 3.03571429,16.0714286 C2.79761905,16.1904762 2.55952381,16.1904762 2.32142857,15.952381 C2.14285714,15.7142857 2.32142857,15.5357143 2.38095238,15.297619 C2.61904762,14.6428571 3.57142857,13.9285714 4.22619048,13.9285714" id="Shape" fill="#34BDB6"></path>
                <path d="M16.7261905,3.92857143 C16.1904762,3.98809524 16.0119048,3.69047619 16.3095238,3.27380952 C16.7857143,2.55952381 17.4404762,2.08333333 18.2738095,2.02380952 C18.75,1.96428571 18.9285714,2.20238095 18.6904762,2.67857143 C18.452381,3.27380952 17.3809524,3.92857143 16.7261905,3.92857143" id="Shape" fill="#34BDB6"></path>
                <path d="M10.2380952,7.20238095 C10.2380952,7.79761905 8.80952381,8.86904762 8.33333333,8.75 C8.0952381,8.69047619 8.0952381,8.51190476 8.1547619,8.33333333 C8.51190476,7.67857143 9.04761905,7.20238095 9.76190476,7.02380952 C9.94047619,7.08333333 10.1785714,7.02380952 10.2380952,7.20238095" id="Shape" fill="#2481B6"></path>
            </g>
            <g id="Group" transform="translate(0.000000, 5.952381)">
                <path d="M8.39285714,17.1428571 C7.26190476,17.1428571 6.25,16.9642857 5.29761905,16.6071429 C4.3452381,16.25 3.51190476,15.7142857 2.79761905,15.0595238 C2.08333333,14.4047619 1.54761905,13.5714286 1.13095238,12.5595238 C0.714285714,11.547619 0.535714286,10.4761905 0.535714286,9.28571429 C0.535714286,8.0952381 0.714285714,7.02380952 1.13095238,6.01190476 C1.54761905,5 2.08333333,4.16666667 2.85714286,3.39285714 C3.57142857,2.67857143 4.46428571,2.14285714 5.47619048,1.72619048 C6.48809524,1.30952381 7.55952381,1.13095238 8.75,1.13095238 C9.58333333,1.13095238 10.3571429,1.25 11.0119048,1.42857143 C11.7261905,1.60714286 12.2619048,1.8452381 12.7380952,2.14285714 L13.3928571,1.54761905 L14.2857143,1.54761905 L14.4047619,7.08333333 L13.452381,7.08333333 C12.9166667,5.41666667 12.2619048,4.16666667 11.547619,3.39285714 C10.7738095,2.61904762 9.88095238,2.20238095 8.80952381,2.20238095 C7.5,2.20238095 6.48809524,2.79761905 5.77380952,3.98809524 C5.05952381,5.17857143 4.70238095,6.8452381 4.70238095,8.92857143 C4.70238095,10.1190476 4.82142857,11.1309524 5.05952381,12.0238095 C5.29761905,12.8571429 5.5952381,13.5714286 6.01190476,14.047619 C6.42857143,14.5833333 6.9047619,15 7.44047619,15.2380952 C7.97619048,15.4761905 8.63095238,15.5952381 9.28571429,15.5952381 C10.297619,15.5952381 11.1904762,15.297619 11.9642857,14.7619048 C12.7380952,14.2261905 13.452381,13.3928571 14.1071429,12.3214286 L15,12.8571429 C14.702381,13.452381 14.3452381,14.047619 13.9285714,14.5238095 C13.5119048,15 13.0952381,15.4166667 12.5595238,15.7738095 C12.0238095,16.1904762 11.3690476,16.4880952 10.7142857,16.6666667 C10.1190476,17.0238095 9.28571429,17.1428571 8.39285714,17.1428571 Z" id="Shape" fill="#34BDB6"></path>
                <path d="M28.0952381,16.4880952 C27.797619,16.6071429 27.4404762,16.7261905 26.9642857,16.8452381 C26.547619,16.9642857 26.0714286,17.0238095 25.5952381,17.0238095 C24.702381,17.0238095 24.1071429,16.9047619 23.6904762,16.6071429 C23.2738095,16.3690476 22.9761905,15.952381 22.8571429,15.4761905 L22.797619,15.4761905 C22.5595238,15.7142857 22.3214286,15.952381 22.0833333,16.0714286 C21.8452381,16.25 21.6071429,16.3690476 21.3690476,16.4880952 C21.0119048,16.6666667 20.7142857,16.7857143 20.4166667,16.8452381 C20.1190476,16.9047619 19.702381,16.9642857 19.1071429,16.9642857 C18.2738095,16.9642857 17.5595238,16.7261905 17.0238095,16.25 C16.4285714,15.7738095 16.1309524,15.1190476 16.1309524,14.2857143 C16.1309524,13.8095238 16.1904762,13.452381 16.3095238,13.0952381 C16.4285714,12.797619 16.6071429,12.5 16.8452381,12.2619048 C17.0833333,12.0238095 17.3214286,11.8452381 17.5595238,11.7261905 C17.8571429,11.547619 18.1547619,11.4285714 18.452381,11.3095238 C19.1071429,11.0714286 19.8809524,10.8333333 20.7738095,10.5952381 C21.6666667,10.3571429 22.3214286,10.1190476 22.7380952,9.94047619 L22.7380952,8.92857143 C22.7380952,8.75 22.7380952,8.51190476 22.6785714,8.21428571 C22.6785714,7.91666667 22.6190476,7.67857143 22.5,7.5 C22.3809524,7.26190476 22.2619048,7.08333333 22.0238095,6.9047619 C21.7857143,6.72619048 21.547619,6.66666667 21.1904762,6.66666667 C20.8928571,6.66666667 20.5952381,6.72619048 20.4166667,6.78571429 C20.1785714,6.8452381 20.0595238,6.96428571 19.8809524,7.08333333 C19.8809524,7.20238095 19.9404762,7.44047619 20.0595238,7.73809524 C20.1785714,8.03571429 20.2380952,8.33333333 20.2380952,8.57142857 C20.2380952,8.69047619 20.1785714,8.86904762 20.1190476,9.04761905 C20.0595238,9.22619048 19.9404762,9.3452381 19.8214286,9.46428571 C19.6428571,9.58333333 19.4642857,9.70238095 19.2857143,9.82142857 C19.1071429,9.88095238 18.75,9.94047619 18.3333333,9.94047619 C17.7380952,9.94047619 17.2619048,9.82142857 16.9642857,9.52380952 C16.6666667,9.22619048 16.4880952,8.86904762 16.4880952,8.39285714 C16.4880952,7.97619048 16.6666667,7.61904762 16.9642857,7.32142857 C17.2619048,7.02380952 17.6785714,6.72619048 18.0952381,6.54761905 C18.5714286,6.30952381 19.047619,6.19047619 19.6428571,6.07142857 C20.2380952,5.95238095 20.7738095,5.89285714 21.25,5.89285714 C21.9642857,5.89285714 22.5595238,5.95238095 23.1547619,6.01190476 C23.75,6.07142857 24.2261905,6.25 24.702381,6.48809524 C25.1190476,6.72619048 25.4761905,7.08333333 25.7738095,7.55952381 C26.0119048,8.03571429 26.1904762,8.63095238 26.1904762,9.4047619 C26.1904762,10.1785714 26.1904762,11.1309524 26.1309524,12.2619048 C26.0714286,13.3333333 26.0714286,14.1071429 26.0714286,14.4047619 C26.0714286,14.702381 26.1309524,15 26.1904762,15.1785714 C26.3095238,15.3571429 26.4285714,15.4761905 26.6071429,15.5952381 C26.7261905,15.6547619 26.9047619,15.7142857 27.202381,15.7142857 C27.4404762,15.7142857 27.6785714,15.7142857 27.9166667,15.7142857 L27.9166667,16.4880952 L28.0952381,16.4880952 Z M22.797619,10.952381 C22.3809524,11.0714286 22.0238095,11.25 21.6071429,11.4285714 C21.1904762,11.6071429 20.8928571,11.7857143 20.6547619,11.9642857 C20.4166667,12.1428571 20.1785714,12.4404762 20.0595238,12.7380952 C19.8809524,13.0357143 19.8214286,13.3928571 19.8214286,13.8095238 C19.8214286,14.3452381 19.9404762,14.7619048 20.1785714,15 C20.4166667,15.2380952 20.7142857,15.3571429 21.1309524,15.3571429 C21.547619,15.3571429 21.8452381,15.297619 22.0833333,15.1190476 C22.3214286,14.9404762 22.5595238,14.7619048 22.7380952,14.5238095 L22.797619,10.952381 Z" id="Shape" fill="#34BDB6"></path>
                <path d="M35.4166667,16.7261905 L28.75,16.7261905 L28.75,15.952381 C28.9285714,15.952381 29.1071429,15.8928571 29.2857143,15.8928571 C29.4642857,15.8928571 29.6428571,15.8333333 29.7619048,15.7738095 C30,15.7142857 30.1190476,15.5952381 30.2380952,15.4166667 C30.297619,15.2380952 30.3571429,15.0595238 30.3571429,14.7619048 L30.3571429,2.97619048 C30.3571429,2.67857143 30.297619,2.44047619 30.1785714,2.20238095 C30.0595238,1.96428571 29.9404762,1.78571429 29.7619048,1.66666667 C29.6428571,1.54761905 29.4047619,1.48809524 29.1071429,1.42857143 C28.8095238,1.36904762 28.5714286,1.30952381 28.3333333,1.25 L28.3333333,0.476190476 L33.6904762,0.178571429 L33.8690476,0.357142857 L33.8690476,14.5833333 C33.8690476,14.8214286 33.9285714,15.0595238 33.9880952,15.2380952 C34.1071429,15.4166667 34.2261905,15.5357143 34.4642857,15.5952381 C34.5833333,15.6547619 34.7619048,15.7142857 34.9404762,15.7738095 C35.1190476,15.8333333 35.297619,15.8333333 35.4761905,15.8928571 L35.4761905,16.7261905 L35.4166667,16.7261905 Z" id="Shape" fill="#34BDB6"></path>
                <path d="M57.5595238,16.7261905 L51.25,16.7261905 L51.25,15.952381 C51.4285714,15.952381 51.547619,15.8928571 51.7261905,15.8928571 C51.9047619,15.8928571 52.0238095,15.8333333 52.1428571,15.7738095 C52.3214286,15.7142857 52.3809524,15.5952381 52.4404762,15.4166667 C52.5,15.2380952 52.5,15.0595238 52.5,14.7619048 L52.5,9.76190476 C52.5,9.04761905 52.3809524,8.51190476 52.0833333,8.0952381 C51.8452381,7.73809524 51.4285714,7.55952381 50.952381,7.55952381 C50.6547619,7.55952381 50.3571429,7.61904762 50.1190476,7.67857143 C49.8809524,7.79761905 49.6428571,7.91666667 49.4642857,8.03571429 C49.2857143,8.21428571 49.1071429,8.33333333 48.9880952,8.51190476 C48.8690476,8.69047619 48.75,8.80952381 48.6904762,8.86904762 L48.6904762,14.5833333 C48.6904762,14.8214286 48.75,15.0595238 48.8095238,15.1785714 C48.8690476,15.3571429 48.9880952,15.4761905 49.1666667,15.5357143 C49.2857143,15.5952381 49.4047619,15.6547619 49.5238095,15.7142857 C49.6428571,15.7738095 49.8214286,15.7738095 50,15.8333333 L50,16.6071429 L43.9880952,16.6071429 L43.9880952,15.8333333 C44.1071429,15.8333333 44.2857143,15.7738095 44.4642857,15.7738095 C44.6428571,15.7738095 44.8214286,15.7142857 44.8809524,15.6547619 C45,15.5952381 45.1190476,15.4761905 45.1785714,15.297619 C45.2380952,15.1190476 45.2380952,14.9404762 45.2380952,14.6428571 L45.2380952,9.64285714 C45.2380952,8.92857143 45.1190476,8.39285714 44.8214286,7.97619048 C44.5833333,7.61904762 44.1666667,7.44047619 43.6904762,7.44047619 C43.3928571,7.44047619 43.0952381,7.5 42.8571429,7.55952381 C42.6190476,7.67857143 42.3809524,7.79761905 42.202381,7.91666667 C42.0238095,8.0952381 41.8452381,8.21428571 41.7261905,8.39285714 C41.6071429,8.57142857 41.4880952,8.69047619 41.4285714,8.75 L41.4285714,14.4642857 C41.4285714,14.702381 41.4880952,14.9404762 41.547619,15.0595238 C41.6071429,15.2380952 41.7261905,15.3571429 41.9047619,15.4166667 C42.0238095,15.4761905 42.1428571,15.5357143 42.3214286,15.5952381 C42.4404762,15.6547619 42.6190476,15.6547619 42.797619,15.7142857 L42.797619,16.4880952 L36.4285714,16.4880952 L36.4285714,15.7142857 C36.6071429,15.7142857 36.7857143,15.6547619 36.9642857,15.6547619 C37.1428571,15.6547619 37.3214286,15.5952381 37.4404762,15.5357143 C37.6785714,15.4761905 37.797619,15.3571429 37.9166667,15.1785714 C37.9761905,15 38.0357143,14.8214286 38.0357143,14.5238095 L38.0357143,8.57142857 C38.0357143,8.33333333 37.9761905,8.0952381 37.8571429,7.91666667 C37.7380952,7.67857143 37.6190476,7.55952381 37.4404762,7.44047619 C37.3214286,7.38095238 37.1428571,7.26190476 36.9642857,7.20238095 C36.7857143,7.14285714 36.547619,7.08333333 36.3095238,7.08333333 L36.3095238,6.30952381 L41.3690476,6.01190476 L41.547619,6.19047619 L41.547619,7.67857143 L41.6071429,7.67857143 C41.7857143,7.5 42.0238095,7.26190476 42.3214286,7.02380952 C42.6190476,6.78571429 42.8571429,6.60714286 43.0952381,6.42857143 C43.3333333,6.25 43.6904762,6.13095238 44.1071429,6.01190476 C44.5238095,5.89285714 44.9404762,5.83333333 45.4761905,5.83333333 C46.3095238,5.83333333 46.9642857,6.01190476 47.5,6.36904762 C48.0357143,6.72619048 48.452381,7.20238095 48.6309524,7.79761905 L48.75,7.79761905 C48.9285714,7.61904762 49.2261905,7.38095238 49.5238095,7.14285714 C49.8214286,6.9047619 50.1190476,6.66666667 50.3571429,6.54761905 C50.6547619,6.36904762 51.0119048,6.25 51.4285714,6.07142857 C51.8452381,5.95238095 52.3214286,5.89285714 52.797619,5.89285714 C53.8690476,5.89285714 54.702381,6.19047619 55.297619,6.8452381 C55.8928571,7.5 56.1904762,8.39285714 56.1904762,9.52380952 L56.1904762,14.702381 C56.1904762,14.9404762 56.25,15.1785714 56.3095238,15.3571429 C56.3690476,15.5357143 56.547619,15.6547619 56.7261905,15.7142857 C56.8452381,15.7738095 56.9642857,15.8333333 57.1428571,15.8928571 C57.3214286,15.952381 57.5,15.952381 57.7380952,16.0119048 L57.7380952,16.7261905 L57.5595238,16.7261905 Z" id="Shape" fill="#34BDB6"></path>
                <path d="M70.0595238,14.1666667 C69.8214286,14.5833333 69.5238095,14.9404762 69.1666667,15.297619 C68.8095238,15.6547619 68.3928571,15.952381 67.9761905,16.1904762 C67.5,16.4880952 67.0238095,16.6666667 66.547619,16.7857143 C66.0714286,16.9047619 65.4761905,16.9642857 64.8809524,16.9642857 C63.8095238,16.9642857 62.9166667,16.7857143 62.1428571,16.4880952 C61.3690476,16.1904762 60.7738095,15.7738095 60.2380952,15.297619 C59.7619048,14.8214286 59.3452381,14.2261905 59.1071429,13.5119048 C58.8690476,12.797619 58.75,12.0833333 58.75,11.3095238 C58.75,10.5952381 58.8690476,9.88095238 59.1666667,9.22619048 C59.4047619,8.57142857 59.8214286,7.97619048 60.297619,7.44047619 C60.7738095,6.96428571 61.3690476,6.54761905 62.1428571,6.19047619 C62.8571429,5.89285714 63.6904762,5.71428571 64.5833333,5.71428571 C65.5952381,5.71428571 66.3690476,5.83333333 67.0238095,6.07142857 C67.6785714,6.30952381 68.2142857,6.66666667 68.6309524,7.08333333 C69.047619,7.5 69.3452381,7.97619048 69.5238095,8.51190476 C69.702381,9.04761905 69.8214286,9.64285714 69.8214286,10.2380952 L69.8214286,10.952381 L62.6190476,10.952381 C62.6190476,12.3809524 62.9166667,13.5119048 63.452381,14.2857143 C63.9880952,15.0595238 64.8809524,15.4166667 66.1309524,15.4166667 C66.7857143,15.4166667 67.3809524,15.2380952 67.9166667,14.8809524 C68.452381,14.5238095 68.9285714,14.047619 69.2857143,13.5119048 L70.0595238,14.1666667 Z M65.952381,10.1190476 C65.952381,9.70238095 65.952381,9.28571429 65.8928571,8.80952381 C65.8333333,8.33333333 65.7738095,7.97619048 65.6547619,7.73809524 C65.5357143,7.38095238 65.3571429,7.14285714 65.1785714,6.96428571 C64.9404762,6.78571429 64.702381,6.72619048 64.4047619,6.72619048 C63.8690476,6.72619048 63.3928571,7.02380952 63.0952381,7.55952381 C62.797619,8.0952381 62.6190476,8.98809524 62.5595238,10.1785714 L65.952381,10.1190476 Z" id="Shape" fill="#34BDB6"></path>
                <path d="M81.6666667,8.0952381 C81.6666667,8.63095238 81.4880952,9.10714286 81.1904762,9.52380952 C80.8333333,9.94047619 80.4166667,10.1190476 79.8809524,10.1190476 C79.3452381,10.1190476 78.9285714,10 78.5714286,9.70238095 C78.2142857,9.46428571 78.0357143,9.04761905 78.0357143,8.57142857 C78.0357143,8.33333333 78.0357143,8.1547619 78.0952381,7.97619048 C78.1547619,7.85714286 78.1547619,7.73809524 78.2142857,7.55952381 C77.9166667,7.55952381 77.5595238,7.67857143 77.202381,7.91666667 C76.8452381,8.1547619 76.547619,8.39285714 76.25,8.75 L76.25,14.5833333 C76.25,14.8214286 76.3095238,15.0595238 76.3690476,15.1785714 C76.4285714,15.3571429 76.6071429,15.4761905 76.7857143,15.5357143 C76.9642857,15.5952381 77.202381,15.6547619 77.5595238,15.7142857 C77.9166667,15.7738095 78.1547619,15.7738095 78.3333333,15.8333333 L78.3333333,16.6071429 L71.1904762,16.6071429 L71.1904762,15.8333333 C71.3690476,15.8333333 71.547619,15.7738095 71.7261905,15.7738095 C71.9047619,15.7738095 72.0833333,15.7142857 72.202381,15.6547619 C72.4404762,15.5952381 72.5595238,15.4761905 72.6785714,15.297619 C72.7380952,15.1190476 72.797619,14.9404762 72.797619,14.6428571 L72.797619,8.57142857 C72.797619,8.33333333 72.7380952,8.0952381 72.6190476,7.85714286 C72.5,7.67857143 72.3809524,7.5 72.202381,7.38095238 C72.0833333,7.32142857 71.9047619,7.20238095 71.7261905,7.14285714 C71.547619,7.08333333 71.3095238,7.02380952 71.0714286,7.02380952 L71.0714286,6.25 L76.1309524,5.95238095 L76.3095238,6.13095238 L76.3095238,7.73809524 L76.3690476,7.73809524 C76.8452381,7.14285714 77.3809524,6.72619048 77.9166667,6.42857143 C78.452381,6.13095238 79.047619,5.95238095 79.6428571,5.95238095 C80.297619,5.95238095 80.8333333,6.13095238 81.25,6.54761905 C81.4880952,6.96428571 81.6666667,7.5 81.6666667,8.0952381 Z" id="Shape" fill="#34BDB6"></path>
                <path d="M95.952381,17.1428571 C94.8214286,17.1428571 93.8095238,16.9642857 92.8571429,16.6071429 C91.9047619,16.25 91.0714286,15.7142857 90.3571429,15.0595238 C89.6428571,14.4047619 89.1071429,13.5714286 88.6904762,12.5595238 C88.2738095,11.547619 88.0952381,10.4761905 88.0952381,9.28571429 C88.0952381,8.0952381 88.2738095,7.02380952 88.6904762,6.01190476 C89.1071429,5 89.6428571,4.16666667 90.4166667,3.39285714 C91.1309524,2.67857143 92.0238095,2.14285714 93.0357143,1.72619048 C94.047619,1.30952381 95.1190476,1.13095238 96.3095238,1.13095238 C97.1428571,1.13095238 97.9166667,1.25 98.5714286,1.42857143 C99.2857143,1.60714286 99.8214286,1.8452381 100.297619,2.14285714 L100.952381,1.54761905 L101.904762,1.54761905 L102.02381,7.08333333 L101.071429,7.08333333 C100.535714,5.41666667 99.8809524,4.16666667 99.1666667,3.39285714 C98.452381,2.61904762 97.5,2.20238095 96.4285714,2.20238095 C95.1190476,2.20238095 94.1071429,2.79761905 93.3928571,3.98809524 C92.6785714,5.17857143 92.3214286,6.8452381 92.3214286,8.92857143 C92.3214286,10.1190476 92.4404762,11.1309524 92.6785714,12.0238095 C92.9166667,12.8571429 93.2142857,13.5714286 93.6309524,14.047619 C94.047619,14.5833333 94.5238095,15 95.0595238,15.2380952 C95.5952381,15.4761905 96.25,15.5952381 96.9047619,15.5952381 C97.9166667,15.5952381 98.8095238,15.297619 99.5833333,14.7619048 C100.357143,14.2261905 101.071429,13.3928571 101.72619,12.3214286 L102.619048,12.8571429 C102.321429,13.452381 101.964286,14.047619 101.547619,14.5238095 C101.130952,15 100.714286,15.4166667 100.178571,15.7738095 C99.6428571,16.1904762 98.9880952,16.4880952 98.3333333,16.6666667 C97.6785714,17.0238095 96.9047619,17.1428571 95.952381,17.1428571 Z" id="Shape" fill="#2481B6"></path>
                <path d="M117.380952,16.7261905 L110.952381,16.7261905 L110.952381,15.952381 C111.071429,15.952381 111.25,15.8928571 111.428571,15.8928571 C111.607143,15.8928571 111.785714,15.8333333 111.845238,15.7738095 C112.02381,15.7142857 112.083333,15.5952381 112.142857,15.4166667 C112.202381,15.2380952 112.261905,15.0595238 112.261905,14.7619048 L112.261905,9.76190476 C112.261905,9.04761905 112.142857,8.51190476 111.845238,8.0952381 C111.547619,7.73809524 111.190476,7.55952381 110.654762,7.55952381 C110.357143,7.55952381 110.119048,7.61904762 109.880952,7.67857143 C109.642857,7.73809524 109.404762,7.91666667 109.166667,8.03571429 C108.988095,8.1547619 108.809524,8.33333333 108.690476,8.45238095 C108.571429,8.63095238 108.452381,8.75 108.392857,8.86904762 L108.392857,14.5833333 C108.392857,14.8214286 108.452381,15.0595238 108.511905,15.1785714 C108.571429,15.3571429 108.690476,15.4761905 108.869048,15.5357143 C108.988095,15.5952381 109.107143,15.6547619 109.285714,15.7142857 C109.464286,15.7738095 109.642857,15.7738095 109.761905,15.8333333 L109.761905,16.6071429 L103.27381,16.6071429 L103.27381,15.8333333 C103.452381,15.8333333 103.630952,15.7738095 103.809524,15.7738095 C103.988095,15.7738095 104.166667,15.7142857 104.285714,15.6547619 C104.52381,15.5952381 104.642857,15.4761905 104.761905,15.297619 C104.821429,15.1190476 104.880952,14.9404762 104.880952,14.6428571 L104.880952,2.91666667 C104.880952,2.67857143 104.821429,2.44047619 104.702381,2.20238095 C104.583333,1.96428571 104.464286,1.72619048 104.22619,1.60714286 C104.107143,1.48809524 103.869048,1.42857143 103.630952,1.36904762 C103.333333,1.30952381 103.095238,1.30952381 102.916667,1.25 L102.916667,0.476190476 L108.214286,0.178571429 L108.392857,0.357142857 L108.392857,7.73809524 L108.452381,7.73809524 C108.75,7.5 108.988095,7.26190476 109.166667,7.08333333 C109.404762,6.9047619 109.642857,6.66666667 109.940476,6.48809524 C110.178571,6.30952381 110.535714,6.19047619 110.952381,6.07142857 C111.369048,5.95238095 111.845238,5.89285714 112.321429,5.89285714 C113.452381,5.89285714 114.345238,6.25 114.940476,6.9047619 C115.535714,7.55952381 115.833333,8.45238095 115.833333,9.52380952 L115.833333,14.7619048 C115.833333,15 115.892857,15.2380952 115.952381,15.4166667 C116.011905,15.5952381 116.190476,15.7142857 116.369048,15.7738095 C116.488095,15.8333333 116.666667,15.8928571 116.785714,15.952381 C116.964286,16.0119048 117.142857,16.0119048 117.380952,16.0714286 L117.380952,16.7261905 L117.380952,16.7261905 Z" id="Shape" fill="#2481B6"></path>
                <path d="M129.22619,7.44047619 C129.761905,7.91666667 130.178571,8.51190476 130.416667,9.22619048 C130.714286,9.88095238 130.833333,10.6547619 130.833333,11.4285714 C130.833333,12.202381 130.714286,12.9761905 130.416667,13.6309524 C130.119048,14.3452381 129.761905,14.9404762 129.22619,15.4166667 C128.690476,15.952381 127.97619,16.3690476 127.202381,16.6666667 C126.428571,16.9642857 125.535714,17.0833333 124.52381,17.0833333 C123.630952,17.0833333 122.857143,16.9642857 122.142857,16.7261905 C121.428571,16.4880952 120.77381,16.1309524 120.238095,15.5952381 C119.702381,15.1190476 119.285714,14.5238095 118.988095,13.8095238 C118.690476,13.0952381 118.511905,12.3214286 118.511905,11.4880952 C118.511905,10.6547619 118.630952,9.88095238 118.928571,9.22619048 C119.22619,8.57142857 119.583333,7.97619048 120.178571,7.44047619 C120.714286,6.96428571 121.369048,6.54761905 122.142857,6.30952381 C122.916667,6.01190476 123.75,5.89285714 124.702381,5.89285714 C125.714286,5.89285714 126.547619,6.01190476 127.321429,6.30952381 C128.035714,6.54761905 128.690476,6.9047619 129.22619,7.44047619 Z M126.488095,14.8214286 C126.666667,14.4047619 126.785714,13.9285714 126.845238,13.3928571 C126.904762,12.797619 126.964286,12.1428571 126.964286,11.4285714 C126.964286,10.952381 126.904762,10.3571429 126.845238,9.70238095 C126.785714,9.04761905 126.666667,8.57142857 126.547619,8.21428571 C126.369048,7.73809524 126.130952,7.44047619 125.833333,7.14285714 C125.535714,6.9047619 125.178571,6.78571429 124.702381,6.78571429 C124.22619,6.78571429 123.809524,6.9047619 123.511905,7.20238095 C123.214286,7.5 122.97619,7.85714286 122.797619,8.27380952 C122.619048,8.69047619 122.559524,9.16666667 122.5,9.70238095 C122.440476,10.2380952 122.440476,10.8333333 122.440476,11.4285714 C122.440476,12.202381 122.440476,12.8571429 122.5,13.3333333 C122.559524,13.8690476 122.678571,14.3452381 122.857143,14.8809524 C123.035714,15.297619 123.27381,15.6547619 123.571429,15.952381 C123.869048,16.1904762 124.285714,16.3095238 124.702381,16.3095238 C125.119048,16.3095238 125.47619,16.1904762 125.77381,15.952381 C126.071429,15.5952381 126.309524,15.2380952 126.488095,14.8214286 Z" id="Shape" fill="#2481B6"></path>
                <path d="M138.928571,16.7261905 L132.202381,16.7261905 L132.202381,15.952381 C132.380952,15.952381 132.559524,15.8928571 132.738095,15.8928571 C132.916667,15.8928571 133.095238,15.8333333 133.214286,15.7738095 C133.452381,15.7142857 133.571429,15.5952381 133.690476,15.4166667 C133.809524,15.2380952 133.809524,15.0595238 133.809524,14.7619048 L133.809524,8.57142857 C133.809524,8.33333333 133.75,8.0952381 133.630952,7.91666667 C133.511905,7.73809524 133.392857,7.55952381 133.214286,7.44047619 C133.095238,7.38095238 132.916667,7.26190476 132.619048,7.20238095 C132.321429,7.14285714 132.142857,7.08333333 131.904762,7.02380952 L131.904762,6.25 L137.142857,5.95238095 L137.321429,6.13095238 L137.321429,14.5833333 C137.321429,14.8214286 137.380952,15.0595238 137.5,15.2380952 C137.619048,15.4166667 137.738095,15.5357143 137.97619,15.6547619 C138.095238,15.7142857 138.27381,15.7738095 138.452381,15.8333333 C138.630952,15.8928571 138.809524,15.8928571 138.988095,15.952381 L138.988095,16.7261905 L138.928571,16.7261905 Z M137.380952,2.20238095 C137.380952,2.73809524 137.202381,3.21428571 136.785714,3.57142857 C136.369048,3.92857143 135.892857,4.16666667 135.297619,4.16666667 C134.702381,4.16666667 134.22619,3.98809524 133.809524,3.57142857 C133.392857,3.21428571 133.214286,2.73809524 133.214286,2.20238095 C133.214286,1.66666667 133.392857,1.19047619 133.809524,0.833333333 C134.22619,0.476190476 134.702381,0.238095238 135.297619,0.238095238 C135.892857,0.238095238 136.369048,0.416666667 136.785714,0.833333333 C137.202381,1.19047619 137.380952,1.66666667 137.380952,2.20238095 Z" id="Shape" fill="#2481B6"></path>
                <path d="M146.011905,17.0833333 C145,17.0833333 144.166667,16.9642857 143.392857,16.6666667 C142.619048,16.3690476 142.02381,16.0119048 141.547619,15.4761905 C141.071429,15 140.714286,14.4047619 140.47619,13.6904762 C140.238095,12.9761905 140.119048,12.2619048 140.119048,11.4285714 C140.119048,10.7142857 140.238095,10 140.535714,9.3452381 C140.833333,8.69047619 141.25,8.0952381 141.72619,7.55952381 C142.261905,7.02380952 142.916667,6.60714286 143.630952,6.30952381 C144.404762,6.01190476 145.238095,5.83333333 146.190476,5.83333333 C147.5,5.83333333 148.511905,6.07142857 149.285714,6.54761905 C150.059524,7.02380952 150.416667,7.67857143 150.416667,8.57142857 C150.416667,9.10714286 150.297619,9.52380952 150,9.82142857 C149.702381,10.1190476 149.285714,10.297619 148.630952,10.297619 C148.095238,10.297619 147.678571,10.1785714 147.321429,9.94047619 C146.964286,9.70238095 146.785714,9.3452381 146.785714,8.92857143 C146.785714,8.57142857 146.845238,8.21428571 146.964286,7.91666667 C147.083333,7.55952381 147.142857,7.32142857 147.142857,7.14285714 C147.083333,7.02380952 146.964286,6.9047619 146.845238,6.8452381 C146.72619,6.78571429 146.547619,6.72619048 146.309524,6.72619048 C146.011905,6.72619048 145.714286,6.78571429 145.416667,6.96428571 C145.178571,7.14285714 144.880952,7.38095238 144.702381,7.73809524 C144.464286,8.0952381 144.285714,8.57142857 144.166667,9.16666667 C144.047619,9.76190476 143.988095,10.4761905 143.988095,11.3095238 C143.988095,12.5595238 144.285714,13.5714286 144.880952,14.3452381 C145.47619,15.1190476 146.190476,15.5357143 147.02381,15.5357143 C147.797619,15.5357143 148.452381,15.3571429 148.928571,15 C149.404762,14.6428571 149.821429,14.1666667 150.178571,13.5119048 L150.952381,14.047619 C150.714286,14.4642857 150.47619,14.8809524 150.178571,15.2380952 C149.880952,15.5952381 149.52381,15.8928571 149.107143,16.1904762 C148.630952,16.4880952 148.214286,16.7261905 147.738095,16.8452381 C147.142857,17.0238095 146.607143,17.0833333 146.011905,17.0833333 Z" id="Shape" fill="#2481B6"></path>
                <path d="M162.97619,14.1666667 C162.738095,14.5833333 162.440476,14.9404762 162.083333,15.297619 C161.72619,15.6547619 161.309524,15.952381 160.892857,16.1904762 C160.416667,16.4880952 159.940476,16.6666667 159.464286,16.7857143 C158.988095,16.9047619 158.392857,16.9642857 157.797619,16.9642857 C156.72619,16.9642857 155.833333,16.7857143 155.059524,16.4880952 C154.285714,16.1904762 153.690476,15.7738095 153.154762,15.297619 C152.678571,14.8214286 152.261905,14.2261905 152.02381,13.5119048 C151.785714,12.797619 151.666667,12.0833333 151.666667,11.3095238 C151.666667,10.5952381 151.785714,9.88095238 152.083333,9.22619048 C152.321429,8.57142857 152.738095,7.97619048 153.214286,7.44047619 C153.690476,6.96428571 154.285714,6.54761905 155.059524,6.19047619 C155.77381,5.89285714 156.607143,5.71428571 157.5,5.71428571 C158.511905,5.71428571 159.285714,5.83333333 159.940476,6.07142857 C160.595238,6.30952381 161.130952,6.66666667 161.547619,7.08333333 C161.964286,7.5 162.261905,7.97619048 162.440476,8.51190476 C162.619048,9.04761905 162.738095,9.64285714 162.738095,10.2380952 L162.738095,10.952381 L155.535714,10.952381 C155.535714,12.3809524 155.833333,13.5119048 156.369048,14.2857143 C156.904762,15.0595238 157.797619,15.4166667 159.047619,15.4166667 C159.702381,15.4166667 160.297619,15.2380952 160.833333,14.8809524 C161.369048,14.5238095 161.845238,14.047619 162.202381,13.5119048 L162.97619,14.1666667 Z M158.928571,10.1190476 C158.928571,9.70238095 158.928571,9.28571429 158.869048,8.80952381 C158.809524,8.33333333 158.75,7.97619048 158.630952,7.73809524 C158.511905,7.38095238 158.333333,7.14285714 158.154762,6.96428571 C157.916667,6.78571429 157.678571,6.72619048 157.380952,6.72619048 C156.845238,6.72619048 156.369048,7.02380952 156.071429,7.55952381 C155.77381,8.0952381 155.595238,8.98809524 155.535714,10.1785714 L158.928571,10.1190476 Z" id="Shape" fill="#2481B6"></path>
            </g>
        </g>
    </g>
</svg>