<?xml version="1.0" encoding="utf-8"?>
<!-- Generator: Adobe Illustrator 21.1.0, SVG Export Plug-In . SVG Version: 6.00 Build 0)  -->
<svg version="1.1" id="Layer_1" xmlns="http://www.w3.org/2000/svg" xmlns:xlink="http://www.w3.org/1999/xlink" x="0px" y="0px"
	 viewBox="0 0 345.9 61.2" style="enable-background:new 0 0 345.9 61.2;" xml:space="preserve">
<style type="text/css">
	.st0{fill:#2481B6;}
	.st1{fill:#34BDB6;}
</style>
<g>
	<path class="st0" d="M338.7,31.5c-3.7,0.7-7.4,1.4-11.1,2.1c-2.7,0.5-5.3,1-8,1.5c-0.6,0.1-0.7,0.6-0.8,1
		c-1.5,5.4-2.9,10.9-4.4,16.3c0,0.1-0.1,0.1-0.3,0.4c0.4-1.6,0.3-3,0.4-4.4c0.5-5.3,0.8-10.6,0.2-15.9c-0.1-1,0.1-1.1,1-1
		c4.4,0.6,8.9,0.2,13.3,0.2c2.9,0,5.9-0.3,8.8-0.5c0.3,0,1.3,0,1.6,0C339.5,31.3,339.1,31.4,338.7,31.5"/>
	<path class="st1" d="M312.3,53.8c-2.7-3.3-5.5-6.6-8.2-10c-0.6-0.8-1-0.7-1.6-0.1c-4,3.2-8,6.4-11.9,9.6c-0.2,0.1-0.3,0.2-0.6,0.3
		c5.4-5.9,11.1-11.4,15.9-17.9c1,5.9,3.6,11.2,6,16.6c0.2,0.5,1,1.8,1,2.3C313,54.5,312.8,54.2,312.3,53.8"/>
	<path class="st1" d="M340.2,11c-3.7,3.3-7.3,6.6-11,9.9c-1.1,1-1.1,1,0.2,1.8c3.6,2.1,7.1,4.2,10.7,6.3c0.2,0.1,0.6,0.2,0.7,0.8
		c-7-2.2-13.8-4.8-21.2-5.7c7.3-3.9,13.8-8.7,20.5-13.3C340.1,10.8,340.1,10.9,340.2,11"/>
	<path class="st0" d="M299.2,34.9c-1.4,2.3-2.8,4.5-4.1,6.9c-1.6,2.7-3.1,5.5-4.6,8.2c-0.1,0.2-0.2,0.3-0.6,0.4
		c0.9-2.3,1.9-4.7,2.8-7c0.4-1,0.8-2,1.2-3c0.2-0.5,0-0.9-0.6-0.9c-1.4,0.1-2.9,0.2-4.3,0.4c-0.9,0.1-1.7,0.1-2.6,0.1
		C290.8,38.4,295.1,36.8,299.2,34.9"/>
	<path class="st0" d="M322.9,42.5c-0.9-0.1-1.8-0.5-2.4-1.4c-0.5-0.9-0.2-1.6,0.2-2.4c0.9-1.6,2.4-2.3,4-2.6c1.1-0.2,2,0.4,2.6,1.4
		c0.7,1.2-0.1,2.1-0.7,2.9C325.8,41.7,324.4,42.3,322.9,42.5"/>
	<path class="st0" d="M324.9,7.1c-0.2,1.5-0.4,3.1-0.7,4.6c0,0.3-0.1,0.7-0.2,1c-0.2,1,0.3,1.3,1.2,1c3.2-0.9,6.4-1.8,9.6-2.8
		c0.3-0.1,0.6-0.3,1.2,0c-5.9,2.5-11.7,4.7-17.3,7.5C321,14.8,322.8,10.9,324.9,7.1"/>
	<path class="st1" d="M312,19.2c-0.6-2.6-2.3-4.5-3.9-6.5c1.3-0.4,2.3,0.3,3.1,0.8c1.8,1,3.1,0.7,4.5-0.7c1.9-1.8,4-3.3,6-5
		c0.2-0.2,1.3-1,1.6-1.1C319.9,10.6,315.3,14.9,312,19.2"/>
	<path class="st1" d="M287.9,37.1c2-1.9,4.1-3.7,6.1-5.6c0.6-0.5,0.7-0.9,0.3-1.6c-0.9-1.4-1.6-2.8-2.6-4.6c2.8,1.8,5.2,3.4,8.5,4
		c-4.2,2.6-8.2,5.2-12.1,8C288.1,37.3,283,41.3,287.9,37.1"/>
	<path class="st1" d="M334.4,22.6c-0.7-0.1-1.7,0.1-2.1-0.9c-0.4-1,0.1-1.8,0.8-2.4c1.4-1.3,3-2.1,5-1.7c1.5,0.3,1.8,1.4,1,2.7
		C338.3,21.6,336.2,22.6,334.4,22.6"/>
	<path class="st1" d="M302.5,46.4c1.2,0,1.7,0.5,1.8,1.7c0.1,1.9-1.8,4.2-3.6,4.5c-1.6,0.2-2.4-0.4-2.3-2
		C298.5,48.5,300.6,46.4,302.5,46.4"/>
	<path class="st0" d="M295.5,23.3c1.7-0.6,3.5-1.2,5.3-1.8c1-0.3,1.7-0.9,2.2-1.9c0.8-1.7,1.7-3.4,2.7-5.4c-0.2,2-0.7,3.6-0.9,5.3
		c-0.1,0.8-0.1,1.7-0.2,2.5c0,0.4,0,0.8-0.6,0.8c-2.8-0.1-5.6,0.4-8.4,0.8C295.5,23.5,295.5,23.4,295.5,23.3"/>
	<path class="st0" d="M290.7,41.3c0.6,0.1,0.9,0.6,0.7,1.3c-0.4,1.6-1.5,2.6-3,3.3c-0.6,0.3-1.3,0.1-1.3-0.9
		C287.1,43.8,289.3,41.3,290.7,41.3"/>
	<path class="st0" d="M327.4,11.6c-0.4,0-0.9,0-1.1-0.5c-0.2-0.5,0.1-0.8,0.4-1.1c0.9-1,2-1.8,3.4-2c0.5-0.1,1-0.1,1.4,0.4
		c0.5,0.6-0.2,0.9-0.4,1.2C330.7,10.5,328.5,11.6,327.4,11.6"/>
	<path class="st1" d="M292.1,29.4c0.4,0.1,0.9,0.2,0.6,1c-0.5,1.3-1.4,2.1-2.6,2.6c-0.4,0.2-0.8,0.2-1.2-0.2c-0.3-0.4,0-0.7,0.1-1.1
		C289.4,30.6,291,29.4,292.1,29.4"/>
	<path class="st1" d="M313.1,12.6c-0.9,0.1-1.2-0.4-0.7-1.1c0.8-1.2,1.9-2,3.3-2.1c0.8-0.1,1.1,0.3,0.7,1.1
		C316,11.5,314.2,12.6,313.1,12.6"/>
	<path class="st0" d="M302.2,18.1c0,1-2.4,2.8-3.2,2.6c-0.4-0.1-0.4-0.4-0.3-0.7c0.6-1.1,1.5-1.9,2.7-2.2
		C301.7,17.9,302.1,17.8,302.2,18.1"/>
</g>
<g>
	<path class="st1" d="M19.1,44.8c-1.9,0-3.6-0.3-5.2-0.9c-1.6-0.6-3-1.5-4.2-2.6c-1.2-1.1-2.1-2.5-2.8-4.2c-0.7-1.7-1-3.5-1-5.5
		c0-2,0.3-3.8,1-5.5c0.7-1.7,1.6-3.1,2.9-4.4c1.2-1.2,2.7-2.1,4.4-2.8c1.7-0.7,3.5-1,5.5-1c1.4,0,2.7,0.2,3.8,0.5
		c1.2,0.3,2.1,0.7,2.9,1.2l1.1-1H29l0.2,9.3h-1.6c-0.9-2.8-2-4.9-3.2-6.2c-1.3-1.3-2.8-2-4.6-2c-2.2,0-3.9,1-5.1,3
		c-1.2,2-1.8,4.8-1.8,8.3c0,2,0.2,3.7,0.6,5.2c0.4,1.4,0.9,2.6,1.6,3.4c0.7,0.9,1.5,1.6,2.4,2c0.9,0.4,2,0.6,3.1,0.6
		c1.7,0,3.2-0.5,4.5-1.4c1.3-0.9,2.5-2.3,3.6-4.1l1.5,0.9c-0.5,1-1.1,2-1.8,2.8c-0.7,0.8-1.4,1.5-2.3,2.1c-0.9,0.7-2,1.2-3.1,1.5
		C22,44.6,20.6,44.8,19.1,44.8z"/>
	<path class="st1" d="M52.2,43.7c-0.5,0.2-1.1,0.4-1.9,0.6c-0.7,0.2-1.5,0.3-2.3,0.3c-1.5,0-2.5-0.2-3.2-0.7
		c-0.7-0.4-1.2-1.1-1.4-1.9h-0.1c-0.4,0.4-0.8,0.8-1.2,1c-0.4,0.3-0.8,0.5-1.2,0.7c-0.6,0.3-1.1,0.5-1.6,0.6
		c-0.5,0.1-1.2,0.2-2.2,0.2c-1.4,0-2.6-0.4-3.5-1.2c-1-0.8-1.5-1.9-1.5-3.3c0-0.8,0.1-1.4,0.3-2c0.2-0.5,0.5-1,0.9-1.4
		c0.4-0.4,0.8-0.7,1.2-0.9c0.5-0.3,1-0.5,1.5-0.7c1.1-0.4,2.4-0.8,3.9-1.2c1.5-0.4,2.6-0.8,3.3-1.1V31c0-0.3,0-0.7-0.1-1.2
		c0-0.5-0.1-0.9-0.3-1.2c-0.2-0.4-0.4-0.7-0.8-1c-0.4-0.3-0.8-0.4-1.4-0.4c-0.5,0-1,0.1-1.3,0.2c-0.4,0.1-0.6,0.3-0.9,0.5
		c0,0.2,0.1,0.6,0.3,1.1c0.2,0.5,0.3,1,0.3,1.4c0,0.2-0.1,0.5-0.2,0.8c-0.1,0.3-0.3,0.5-0.5,0.7c-0.3,0.2-0.6,0.4-0.9,0.6
		c-0.3,0.1-0.9,0.2-1.6,0.2c-1,0-1.8-0.2-2.3-0.7c-0.5-0.5-0.8-1.1-0.8-1.9c0-0.7,0.3-1.3,0.8-1.8c0.5-0.5,1.2-1,1.9-1.3
		c0.8-0.4,1.6-0.6,2.6-0.8c1-0.2,1.9-0.3,2.7-0.3c1.2,0,2.2,0.1,3.2,0.2c1,0.1,1.8,0.4,2.6,0.8c0.7,0.4,1.3,1,1.8,1.8
		c0.4,0.8,0.7,1.8,0.7,3.1c0,1.3,0,2.9-0.1,4.8c-0.1,1.8-0.1,3.1-0.1,3.6c0,0.5,0.1,1,0.2,1.3c0.2,0.3,0.4,0.5,0.7,0.7
		c0.2,0.1,0.5,0.2,1,0.2c0.4,0,0.8,0,1.2,0V43.7z M43.3,34.4c-0.7,0.2-1.3,0.5-2,0.8c-0.7,0.3-1.2,0.6-1.6,0.9
		c-0.4,0.3-0.8,0.8-1,1.3c-0.3,0.5-0.4,1.1-0.4,1.8c0,0.9,0.2,1.6,0.6,2c0.4,0.4,0.9,0.6,1.6,0.6c0.7,0,1.2-0.1,1.6-0.4
		c0.4-0.3,0.8-0.6,1.1-1L43.3,34.4z"/>
	<path class="st1" d="M64.5,44.1H53.3v-1.3c0.3,0,0.6-0.1,0.9-0.1c0.3,0,0.6-0.1,0.8-0.2c0.4-0.1,0.6-0.3,0.8-0.6
		c0.1-0.3,0.2-0.6,0.2-1.1V21c0-0.5-0.1-0.9-0.3-1.3c-0.2-0.4-0.4-0.7-0.7-0.9c-0.2-0.2-0.6-0.3-1.1-0.4c-0.5-0.1-0.9-0.2-1.3-0.3
		v-1.3l9-0.5l0.3,0.3v23.9c0,0.4,0.1,0.8,0.2,1.1c0.2,0.3,0.4,0.5,0.8,0.6c0.2,0.1,0.5,0.2,0.8,0.3c0.3,0.1,0.6,0.1,0.9,0.2V44.1z"
		/>
	<path class="st1" d="M101.7,44.1H91.1v-1.3c0.3,0,0.5-0.1,0.8-0.1c0.3,0,0.5-0.1,0.7-0.2c0.3-0.1,0.4-0.3,0.5-0.6
		c0.1-0.3,0.1-0.6,0.1-1.1v-8.4c0-1.2-0.2-2.1-0.7-2.8c-0.4-0.6-1.1-0.9-1.9-0.9c-0.5,0-1,0.1-1.4,0.2c-0.4,0.2-0.8,0.4-1.1,0.6
		c-0.3,0.3-0.6,0.5-0.8,0.8c-0.2,0.3-0.4,0.5-0.5,0.6v9.6c0,0.4,0.1,0.8,0.2,1c0.1,0.3,0.3,0.5,0.6,0.6c0.2,0.1,0.4,0.2,0.6,0.3
		c0.2,0.1,0.5,0.1,0.8,0.2v1.3H78.9v-1.3c0.2,0,0.5-0.1,0.8-0.1s0.6-0.1,0.7-0.2c0.2-0.1,0.4-0.3,0.5-0.6c0.1-0.3,0.1-0.6,0.1-1.1
		v-8.4c0-1.2-0.2-2.1-0.7-2.8c-0.4-0.6-1.1-0.9-1.9-0.9c-0.5,0-1,0.1-1.4,0.2c-0.4,0.2-0.8,0.4-1.1,0.6c-0.3,0.3-0.6,0.5-0.8,0.8
		c-0.2,0.3-0.4,0.5-0.5,0.6v9.6c0,0.4,0.1,0.8,0.2,1c0.1,0.3,0.3,0.5,0.6,0.6c0.2,0.1,0.4,0.2,0.7,0.3c0.2,0.1,0.5,0.1,0.8,0.2v1.3
		H66.2v-1.3c0.3,0,0.6-0.1,0.9-0.1c0.3,0,0.6-0.1,0.8-0.2c0.4-0.1,0.6-0.3,0.8-0.6c0.1-0.3,0.2-0.6,0.2-1.1V30.4
		c0-0.4-0.1-0.8-0.3-1.1c-0.2-0.4-0.4-0.6-0.7-0.8c-0.2-0.1-0.5-0.3-0.8-0.4c-0.3-0.1-0.7-0.2-1.1-0.2v-1.3l8.5-0.5l0.3,0.3v2.5h0.1
		c0.3-0.3,0.7-0.7,1.2-1.1c0.5-0.4,0.9-0.7,1.3-1c0.4-0.3,1-0.5,1.7-0.7c0.7-0.2,1.4-0.3,2.3-0.3c1.4,0,2.5,0.3,3.4,0.9
		c0.9,0.6,1.6,1.4,1.9,2.4h0.2c0.3-0.3,0.8-0.7,1.3-1.1c0.5-0.4,1-0.8,1.4-1c0.5-0.3,1.1-0.5,1.8-0.8c0.7-0.2,1.5-0.3,2.3-0.3
		c1.8,0,3.2,0.5,4.2,1.6c1,1.1,1.5,2.6,1.5,4.5v8.7c0,0.4,0.1,0.8,0.2,1.1c0.1,0.3,0.4,0.5,0.7,0.6c0.2,0.1,0.4,0.2,0.7,0.3
		c0.3,0.1,0.6,0.1,1,0.2V44.1z"/>
	<path class="st1" d="M122.7,39.8c-0.4,0.7-0.9,1.3-1.5,1.9c-0.6,0.6-1.3,1.1-2,1.5c-0.8,0.5-1.6,0.8-2.4,1
		c-0.8,0.2-1.8,0.3-2.8,0.3c-1.8,0-3.3-0.3-4.6-0.8c-1.3-0.5-2.3-1.2-3.2-2c-0.8-0.8-1.5-1.8-1.9-3c-0.4-1.2-0.6-2.4-0.6-3.7
		c0-1.2,0.2-2.4,0.7-3.5c0.4-1.1,1.1-2.1,1.9-3c0.8-0.8,1.8-1.5,3.1-2.1c1.2-0.5,2.6-0.8,4.1-0.8c1.7,0,3,0.2,4.1,0.6
		c1.1,0.4,2,1,2.7,1.7c0.7,0.7,1.2,1.5,1.5,2.4c0.3,0.9,0.5,1.9,0.5,2.9v1.2h-12.1c0,2.4,0.5,4.3,1.4,5.6c0.9,1.3,2.4,1.9,4.5,1.9
		c1.1,0,2.1-0.3,3-0.9c0.9-0.6,1.7-1.4,2.3-2.3L122.7,39.8z M115.8,33c0-0.7,0-1.4-0.1-2.2c-0.1-0.8-0.2-1.4-0.4-1.8
		c-0.2-0.6-0.5-1-0.8-1.3c-0.4-0.3-0.8-0.4-1.3-0.4c-0.9,0-1.7,0.5-2.2,1.4c-0.5,0.9-0.8,2.4-0.9,4.4L115.8,33z"/>
	<path class="st1" d="M142.2,29.6c0,0.9-0.3,1.7-0.8,2.4c-0.6,0.7-1.3,1-2.2,1c-0.9,0-1.6-0.2-2.2-0.7c-0.6-0.4-0.9-1.1-0.9-1.9
		c0-0.4,0-0.7,0.1-1c0.1-0.2,0.1-0.4,0.2-0.7c-0.5,0-1.1,0.2-1.7,0.6c-0.6,0.4-1.1,0.8-1.6,1.4v9.8c0,0.4,0.1,0.8,0.2,1
		c0.1,0.3,0.4,0.5,0.7,0.6c0.3,0.1,0.7,0.2,1.3,0.3c0.6,0.1,1,0.1,1.3,0.2v1.3h-12v-1.3c0.3,0,0.6-0.1,0.9-0.1s0.6-0.1,0.8-0.2
		c0.4-0.1,0.6-0.3,0.8-0.6c0.1-0.3,0.2-0.6,0.2-1.1V30.4c0-0.4-0.1-0.8-0.3-1.2c-0.2-0.3-0.4-0.6-0.7-0.8c-0.2-0.1-0.5-0.3-0.8-0.4
		c-0.3-0.1-0.7-0.2-1.1-0.2v-1.3l8.5-0.5l0.3,0.3V29h0.1c0.8-1,1.7-1.7,2.6-2.2c0.9-0.5,1.9-0.8,2.9-0.8c1.1,0,2,0.3,2.7,1
		C141.9,27.7,142.2,28.6,142.2,29.6z"/>
	<path class="st0" d="M166.2,44.8c-1.9,0-3.6-0.3-5.2-0.9c-1.6-0.6-3-1.5-4.2-2.6c-1.2-1.1-2.1-2.5-2.8-4.2c-0.7-1.7-1-3.5-1-5.5
		c0-2,0.3-3.8,1-5.5c0.7-1.7,1.6-3.1,2.9-4.4c1.2-1.2,2.7-2.1,4.4-2.8s3.5-1,5.5-1c1.4,0,2.7,0.2,3.8,0.5c1.2,0.3,2.1,0.7,2.9,1.2
		l1.1-1h1.6l0.2,9.3h-1.6c-0.9-2.8-2-4.9-3.2-6.2s-2.8-2-4.6-2c-2.2,0-3.9,1-5.1,3c-1.2,2-1.8,4.8-1.8,8.3c0,2,0.2,3.7,0.6,5.2
		c0.4,1.4,0.9,2.6,1.6,3.4c0.7,0.9,1.5,1.6,2.4,2c0.9,0.4,2,0.6,3.1,0.6c1.7,0,3.2-0.5,4.5-1.4c1.3-0.9,2.5-2.3,3.6-4.1l1.5,0.9
		c-0.5,1-1.1,2-1.8,2.8c-0.7,0.8-1.4,1.5-2.3,2.1c-0.9,0.7-2,1.2-3.1,1.5C169.1,44.6,167.8,44.8,166.2,44.8z"/>
	<path class="st0" d="M202.2,44.1h-10.8v-1.3c0.2,0,0.5-0.1,0.8-0.1c0.3,0,0.6-0.1,0.7-0.2c0.3-0.1,0.4-0.3,0.5-0.6
		c0.1-0.3,0.2-0.6,0.2-1.1v-8.4c0-1.2-0.2-2.1-0.7-2.8c-0.5-0.6-1.1-0.9-2-0.9c-0.5,0-0.9,0.1-1.3,0.2c-0.4,0.1-0.8,0.4-1.2,0.6
		c-0.3,0.2-0.6,0.5-0.8,0.7c-0.2,0.3-0.4,0.5-0.5,0.7v9.6c0,0.4,0.1,0.8,0.2,1c0.1,0.3,0.3,0.5,0.6,0.6c0.2,0.1,0.4,0.2,0.7,0.3
		c0.3,0.1,0.6,0.1,0.8,0.2v1.3h-10.9v-1.3c0.3,0,0.6-0.1,0.9-0.1c0.3,0,0.6-0.1,0.8-0.2c0.4-0.1,0.6-0.3,0.8-0.6
		c0.1-0.3,0.2-0.6,0.2-1.1V20.9c0-0.4-0.1-0.8-0.3-1.2c-0.2-0.4-0.4-0.8-0.8-1c-0.2-0.2-0.6-0.3-1-0.4c-0.5-0.1-0.9-0.1-1.2-0.2
		v-1.3l8.9-0.5l0.3,0.3V29h0.1c0.5-0.4,0.9-0.8,1.2-1.1c0.4-0.3,0.8-0.7,1.3-1c0.4-0.3,1-0.5,1.7-0.7s1.5-0.3,2.3-0.3
		c1.9,0,3.4,0.6,4.4,1.7c1,1.1,1.5,2.6,1.5,4.4v8.8c0,0.4,0.1,0.8,0.2,1.1c0.1,0.3,0.4,0.5,0.7,0.6c0.2,0.1,0.5,0.2,0.7,0.3
		c0.3,0.1,0.6,0.1,1,0.2V44.1z"/>
	<path class="st0" d="M222.1,28.5c0.9,0.8,1.6,1.8,2,3c0.5,1.1,0.7,2.4,0.7,3.7c0,1.3-0.2,2.6-0.7,3.7c-0.5,1.2-1.1,2.2-2,3
		c-0.9,0.9-2.1,1.6-3.4,2.1c-1.3,0.5-2.8,0.7-4.5,0.7c-1.5,0-2.8-0.2-4-0.6c-1.2-0.4-2.3-1-3.2-1.9c-0.9-0.8-1.6-1.8-2.1-3
		c-0.5-1.2-0.8-2.5-0.8-3.9c0-1.4,0.2-2.7,0.7-3.8c0.5-1.1,1.1-2.1,2.1-3c0.9-0.8,2-1.5,3.3-1.9c1.3-0.5,2.7-0.7,4.3-0.7
		c1.7,0,3.1,0.2,4.4,0.7C220.1,27,221.2,27.6,222.1,28.5z M217.5,40.9c0.3-0.7,0.5-1.5,0.6-2.4c0.1-1,0.2-2.1,0.2-3.3
		c0-0.8-0.1-1.8-0.2-2.9s-0.3-1.9-0.5-2.5c-0.3-0.8-0.7-1.3-1.2-1.8c-0.5-0.4-1.1-0.6-1.9-0.6c-0.8,0-1.5,0.2-2,0.7
		c-0.5,0.5-0.9,1.1-1.2,1.8c-0.3,0.7-0.4,1.5-0.5,2.4c-0.1,0.9-0.1,1.9-0.1,2.9c0,1.3,0,2.4,0.1,3.2c0.1,0.9,0.3,1.7,0.6,2.6
		c0.3,0.7,0.7,1.3,1.2,1.8c0.5,0.4,1.2,0.6,1.9,0.6c0.7,0,1.3-0.2,1.8-0.6C216.8,42.2,217.2,41.6,217.5,40.9z"/>
	<path class="st0" d="M238.4,44.1h-11.3v-1.3c0.3,0,0.6-0.1,0.9-0.1c0.3,0,0.6-0.1,0.8-0.2c0.4-0.1,0.6-0.3,0.8-0.6
		c0.2-0.3,0.2-0.6,0.2-1.1V30.4c0-0.4-0.1-0.8-0.3-1.1c-0.2-0.3-0.4-0.6-0.7-0.8c-0.2-0.1-0.5-0.3-1-0.4s-0.8-0.2-1.2-0.3v-1.3
		l8.8-0.5l0.3,0.3v14.2c0,0.4,0.1,0.8,0.3,1.1c0.2,0.3,0.4,0.5,0.8,0.7c0.2,0.1,0.5,0.2,0.8,0.3c0.3,0.1,0.6,0.1,0.9,0.2V44.1z
		 M235.8,19.7c0,0.9-0.3,1.7-1,2.3c-0.7,0.6-1.5,1-2.5,1c-1,0-1.8-0.3-2.5-1c-0.7-0.6-1-1.4-1-2.3c0-0.9,0.3-1.7,1-2.3
		c0.7-0.6,1.5-1,2.5-1s1.8,0.3,2.5,1C235.5,18,235.8,18.8,235.8,19.7z"/>
	<path class="st0" d="M250.3,44.7c-1.7,0-3.1-0.2-4.4-0.7c-1.3-0.5-2.3-1.1-3.1-2c-0.8-0.8-1.4-1.8-1.8-3c-0.4-1.2-0.6-2.4-0.6-3.8
		c0-1.2,0.2-2.4,0.7-3.5c0.5-1.1,1.2-2.1,2-3c0.9-0.9,2-1.6,3.2-2.1c1.3-0.5,2.7-0.8,4.3-0.8c2.2,0,3.9,0.4,5.2,1.2
		c1.3,0.8,1.9,1.9,1.9,3.4c0,0.9-0.2,1.6-0.7,2.1c-0.5,0.5-1.2,0.8-2.3,0.8c-0.9,0-1.6-0.2-2.2-0.6s-0.9-1-0.9-1.7
		c0-0.6,0.1-1.2,0.3-1.7c0.2-0.6,0.3-1,0.3-1.3c-0.1-0.2-0.3-0.4-0.5-0.5c-0.2-0.1-0.5-0.2-0.9-0.2c-0.5,0-1,0.1-1.5,0.4
		c-0.4,0.3-0.9,0.7-1.2,1.3c-0.4,0.6-0.7,1.4-0.9,2.4c-0.2,1-0.3,2.2-0.3,3.6c0,2.1,0.5,3.8,1.5,5.1c1,1.3,2.2,2,3.6,2
		c1.3,0,2.4-0.3,3.2-0.9c0.8-0.6,1.5-1.4,2.1-2.5l1.3,0.9c-0.4,0.7-0.8,1.4-1.3,2c-0.5,0.6-1.1,1.1-1.8,1.6
		c-0.8,0.5-1.5,0.9-2.3,1.1C252.2,44.6,251.3,44.7,250.3,44.7z"/>
	<path class="st0" d="M278.8,39.8c-0.4,0.7-0.9,1.3-1.5,1.9c-0.6,0.6-1.3,1.1-2,1.5c-0.8,0.5-1.6,0.8-2.4,1
		c-0.8,0.2-1.8,0.3-2.8,0.3c-1.8,0-3.3-0.3-4.6-0.8c-1.3-0.5-2.3-1.2-3.2-2c-0.8-0.8-1.5-1.8-1.9-3c-0.4-1.2-0.6-2.4-0.6-3.7
		c0-1.2,0.2-2.4,0.7-3.5c0.4-1.1,1.1-2.1,1.9-3c0.8-0.8,1.8-1.5,3.1-2.1c1.2-0.5,2.6-0.8,4.1-0.8c1.7,0,3,0.2,4.1,0.6
		c1.1,0.4,2,1,2.7,1.7c0.7,0.7,1.2,1.5,1.5,2.4c0.3,0.9,0.5,1.9,0.5,2.9v1.2h-12.1c0,2.4,0.5,4.3,1.4,5.6c0.9,1.3,2.4,1.9,4.5,1.9
		c1.1,0,2.1-0.3,3-0.9s1.7-1.4,2.3-2.3L278.8,39.8z M272,33c0-0.7,0-1.4-0.1-2.2c-0.1-0.8-0.2-1.4-0.4-1.8c-0.2-0.6-0.5-1-0.8-1.3
		c-0.4-0.3-0.8-0.4-1.3-0.4c-0.9,0-1.7,0.5-2.2,1.4c-0.5,0.9-0.8,2.4-0.9,4.4L272,33z"/>
</g>
</svg>
