<?xml version="1.0" encoding="UTF-8"?>
<svg width="130px" height="23px" viewBox="0 0 130 23" version="1.1" xmlns="http://www.w3.org/2000/svg" xmlns:xlink="http://www.w3.org/1999/xlink">
<g id="Page-1" stroke="none" stroke-width="1" fill="none" fill-rule="evenodd">
<g id="Asset-2" fill-rule="nonzero">
<path d="M128.78,11.5966667 L123.59,12.5966667 C122.343333,12.84 121.096667,13.0866667 119.846667,13.3166667 C119.553333,13.37 119.536667,13.58 119.48,13.79 C118.797778,16.3433333 118.11,18.8988889 117.416667,21.4566667 C117.416667,21.49 117.373333,21.5166667 117.256667,21.6633333 C117.371731,20.977042 117.430815,20.2825325 117.433333,19.5866667 C117.65,17.0966667 117.816667,14.6033333 117.526667,12.11 C117.473333,11.6633333 117.59,11.57 118.003333,11.6233333 C120.08,11.8866667 122.166667,11.7366667 124.246667,11.7233333 C125.62,11.7233333 126.993333,11.5833333 128.37,11.5066667 C128.5,11.5066667 128.983333,11.5066667 129.116667,11.5066667 C129.116667,11.5366667 128.92,11.5566667 128.783333,11.6" id="Shape" fill="#4E80B3"></path>
<path d="M116.383333,22.0566667 C115.103333,20.4933333 113.806667,18.9466667 112.556667,17.36 C112.263333,16.9933333 112.106667,17.05 111.803333,17.2966667 C109.943333,18.8133333 108.07,20.2966667 106.2,21.8166667 C106.124169,21.8789148 106.033396,21.9202796 105.936667,21.9366667 C108.463333,19.18 111.156667,16.5766667 113.41,13.53 C113.893333,16.31 115.116667,18.79 116.24,21.3033333 C116.434221,21.6409983 116.588588,22.0000682 116.7,22.3733333 C116.67,22.4033333 116.593333,22.2766667 116.366667,22.04" id="Shape" fill="#72BCB4"></path>
<path d="M129.46,2 C127.74,3.55555556 126.02,5.11111111 124.3,6.66666667 C123.77,7.14 123.763333,7.12666667 124.386667,7.49 C126.055556,8.47 127.722222,9.45333333 129.386667,10.44 C129.496667,10.5066667 129.663333,10.5233333 129.693333,10.8066667 C126.416667,9.77333333 123.226667,8.56666667 119.74,8.14 C123.17,6.29333333 126.23,4.04 129.353333,1.88666667 L129.45,2.00333333" id="Shape" fill="#72BCB4"></path>
<path d="M110.236667,13.2166667 C109.59,14.29 108.926667,15.3533333 108.296667,16.4366667 C107.56,17.71 106.85,18.9966667 106.123333,20.28 C106.072107,20.3793068 105.976926,20.4485299 105.866667,20.4666667 L107.176667,17.18 C107.366667,16.7033333 107.55,16.2266667 107.756667,15.76 C107.866667,15.51 107.756667,15.3266667 107.466667,15.3533333 C106.8,15.4166667 106.133333,15.4266667 105.466667,15.54 C105.068675,15.590088 104.666664,15.6001382 104.266667,15.57 C106.266667,14.8266667 108.29,14.1033333 110.24,13.2166667" id="Shape" fill="#4E80B3"></path>
<path d="M121.333333,16.79 C120.879515,16.769625 120.462995,16.5328531 120.213333,16.1533333 C119.956667,15.75 120.113333,15.3933333 120.32,15.0366667 C120.726788,14.3596199 121.427835,13.9128259 122.213333,13.83 C122.725761,13.7645987 123.222978,14.0326402 123.45,14.4966667 C123.783333,15.05 123.386667,15.4966667 123.116667,15.8533333 C122.67492,16.3917708 122.034022,16.7284526 121.34,16.7866667" id="Shape" fill="#4E80B3"></path>
<path d="M122.276667,0.166666667 C122.17,0.89 122.066667,1.61 121.96,2.33333333 C121.936667,2.49 121.91,2.64333333 121.886667,2.8 C121.813333,3.28666667 122.006667,3.4 122.463333,3.26666667 C123.966667,2.82 125.463333,2.4 126.98,1.96 C127.152056,1.87585822 127.351436,1.8673997 127.53,1.93666667 C124.78,3.09666667 122.053333,4.13666667 119.413333,5.45333333 C120.466667,3.75 121.306667,1.93666667 122.276667,0.166666667" id="Shape" fill="#4E80B3"></path>
<path d="M116.233333,5.81 C115.97,4.57333333 115.15,3.71333333 114.396667,2.76666667 C114.986667,2.59333333 115.456667,2.90333333 115.86,3.14 C116.7,3.62666667 117.303333,3.47333333 117.99,2.82666667 C118.866667,1.98666667 119.856667,1.26333333 120.803333,0.493333333 C121.028806,0.299125038 121.277344,0.133432733 121.543333,1.24344979e-14 C119.913333,1.78666667 117.76,3.83333333 116.233333,5.81" id="Shape" fill="#72BCB4"></path>
<path d="M104.91,14.2266667 C105.87,13.3533333 106.82,12.47 107.796667,11.6166667 C108.073333,11.3733333 108.13,11.2033333 107.933333,10.8733333 C107.526667,10.2066667 107.173333,9.54 106.723333,8.73333333 C108.02,9.56333333 109.176667,10.3333333 110.693333,10.62 C108.693333,11.82 106.85,13.07 105.026667,14.3733333 C104.983333,14.3266667 102.6,16.1933333 104.9,14.2266667" id="Shape" fill="#72BCB4"></path>
<path d="M126.72,7.45 C126.386667,7.41666667 125.926667,7.47666667 125.746667,7.01 C125.566667,6.54333333 125.796667,6.18666667 126.126667,5.89333333 C126.793333,5.29666667 127.556667,4.93 128.46,5.11 C129.153333,5.24666667 129.33,5.77666667 128.933333,6.36333333 C128.536667,6.95 127.58,7.42666667 126.71,7.45" id="Shape" fill="#72BCB4"></path>
<path d="M111.773333,18.6066667 C111.995178,18.5747678 112.219526,18.6451311 112.383417,18.7980103 C112.547309,18.9508894 112.633082,19.1698093 112.616667,19.3933333 C112.573023,20.3974148 111.87707,21.2544934 110.903333,21.5033333 C110.16,21.62 109.796667,21.3 109.833333,20.5566667 C109.876667,19.5966667 110.863333,18.6033333 111.773333,18.6066667" id="Shape" fill="#72BCB4"></path>
<path d="M108.47,7.77666667 C109.29,7.49333333 110.106667,7.19333333 110.933333,6.94 C111.398327,6.82242411 111.781755,6.49447625 111.97,6.05333333 C112.333333,5.24 112.753333,4.45 113.22,3.50333333 C113.15,4.45 112.886667,5.21 112.813333,6 C112.773333,6.39666667 112.753333,6.79333333 112.74,7.18666667 C112.74,7.38333333 112.723333,7.55333333 112.46,7.54333333 C111.126667,7.49666667 109.813333,7.74 108.496667,7.92 C108.496667,7.87333333 108.48,7.82333333 108.47,7.77666667" id="Shape" fill="#4E80B3"></path>
<path d="M106.2,16.2133333 C106.331555,16.231734 106.447035,16.3103572 106.512377,16.4260114 C106.577718,16.5416656 106.585465,16.6811546 106.533333,16.8033333 C106.328136,17.5027871 105.816985,18.0715497 105.143333,18.35 C104.853333,18.4833333 104.543333,18.4 104.53,17.95 C104.51,17.37 105.56,16.2166667 106.196667,16.2133333" id="Shape" fill="#4E80B3"></path>
<path d="M123.47,2.25333333 C123.2588,2.30743971 123.03781,2.21135685 122.933333,2.02 C122.836667,1.80666667 123.003333,1.65333333 123.14,1.50666667 C123.549453,1.01192948 124.118965,0.675881927 124.75,0.556666667 C124.991548,0.481684691 125.254492,0.559253196 125.416667,0.753333333 C125.626667,1.02333333 125.34,1.16333333 125.246667,1.32 C125,1.73666667 123.986667,2.25 123.483333,2.25333333" id="Shape" fill="#4E80B3"></path>
<path d="M106.86,10.6333333 C107.06,10.6633333 107.26,10.7333333 107.123333,11.08 C106.899679,11.6399951 106.458156,12.085127 105.9,12.3133333 C105.722199,12.4213491 105.492727,12.3877678 105.353333,12.2333333 C105.196667,12.0466667 105.353333,11.8833333 105.406667,11.7366667 C105.633333,11.19 106.366667,10.6233333 106.86,10.6333333" id="Shape" fill="#72BCB4"></path>
<path d="M116.756667,2.75666667 C116.343333,2.79333333 116.206667,2.56666667 116.423333,2.25666667 C116.761735,1.70410473 117.333586,1.33596038 117.976667,1.25666667 C118.363333,1.21666667 118.496667,1.39666667 118.31,1.76 C117.95925,2.30032849 117.393724,2.66440113 116.756667,2.76" id="Shape" fill="#72BCB4"></path>
<path d="M111.616667,5.33333333 C111.616667,5.8 110.503333,6.66666667 110.133333,6.57666667 C109.94,6.52666667 109.926667,6.4 110,6.26 C110.253031,5.75802077 110.713676,5.39242956 111.26,5.26 C111.393333,5.22666667 111.593333,5.20333333 111.616667,5.34666667" id="Shape" fill="#4E80B3"></path>
<path d="M5.22666667,17.11 C4.56963691,17.1155057 3.91698998,17.002591 3.3,16.7766667 C2.71879906,16.563647 2.18693211,16.234774 1.73666667,15.81 C1.28944084,15.376299 0.939488864,14.8525072 0.71,14.2733333 C0.205598194,12.9784992 0.205598194,11.5415008 0.71,10.2466667 C0.951652287,9.64347335 1.31342469,9.09571138 1.77333333,8.63666667 C2.23483185,8.18396273 2.78535485,7.83208205 3.39,7.60333333 C4.03471396,7.35670487 4.7197369,7.23236077 5.41,7.23666667 C5.88917731,7.23081761 6.36657889,7.29596889 6.82666667,7.43 C7.20082394,7.53656453 7.56366212,7.67946696 7.91,7.85666667 L8.33333333,7.49333333 L8.90666667,7.49333333 L8.96666667,10.91 L8.37333333,10.91 C8.15051329,10.0658635 7.7454622,9.28079259 7.18666667,8.61 C6.75638013,8.13393468 6.14162635,7.86665042 5.5,7.87666667 C4.71535478,7.85318111 3.98535245,8.27697007 3.61666667,8.97 C3.18777778,9.70111111 2.97222222,10.7244444 2.97,12.04 C2.95849493,12.6816018 3.03361713,13.3218223 3.19333333,13.9433333 C3.30653169,14.399311 3.50195202,14.8308172 3.77,15.2166667 C4.00208245,15.5338152 4.31050992,15.7872073 4.66666667,15.9533333 C5.03002663,16.1126136 5.42330075,16.1921777 5.82,16.1866667 C6.40653911,16.1956143 6.98117276,16.0207765 7.46333333,15.6866667 C8.01314704,15.284486 8.46824556,14.7668115 8.79666667,14.17 L9.36333333,14.5033333 C9.18635038,14.8715049 8.96949671,15.2191414 8.71666667,15.54 C8.47441818,15.845295 8.18792342,16.1126901 7.86666667,16.3333333 C7.51147401,16.5767037 7.12302859,16.7675584 6.71333333,16.9 C6.23181339,17.0473343 5.73015616,17.1181962 5.22666667,17.11 Z" id="Shape" fill="#4E80B3"></path>
<path d="M17.45,16.7133333 C17.2276587,16.8091917 16.998046,16.8872154 16.7633333,16.9466667 C16.4912425,17.0172632 16.211093,17.0520017 15.93,17.05 C15.5178978,17.0784545 15.1057269,16.9955598 14.7366667,16.81 C14.4845407,16.6515964 14.2994638,16.4060137 14.2166667,16.12 L14.1766667,16.12 C14.0418282,16.2582421 13.8969921,16.3863663 13.7433333,16.5033333 C13.6060575,16.6095419 13.4573598,16.7001022 13.3,16.7733333 C13.1071856,16.864949 12.9063357,16.938594 12.7,16.9933333 C12.4368601,17.0469933 12.1684603,17.0704783 11.9,17.0633333 C11.4233965,17.075945 10.9582466,16.9161606 10.59,16.6133333 C10.2339659,16.3184762 10.0345607,15.8753535 10.05,15.4133333 C10.0441811,15.1649306 10.083717,14.9175494 10.1666667,14.6833333 C10.2445258,14.4868175 10.3574746,14.3060995 10.5,14.15 C10.6337861,14.0096593 10.789063,13.8915138 10.96,13.8 C11.1460207,13.7034994 11.3374494,13.6178017 11.5333333,13.5433333 C11.9266667,13.4 12.4033333,13.2466667 12.96,13.09 C13.3766368,12.9830164 13.7836076,12.8414128 14.1766667,12.6666667 L14.1766667,12.0333333 C14.1757501,11.8874003 14.1668479,11.7416268 14.15,11.5966667 C14.139063,11.4393743 14.101883,11.2850207 14.04,11.14 C13.9754812,10.9991468 13.875568,10.8774135 13.75,10.7866667 C13.5956941,10.6831456 13.4122975,10.6317478 13.2266667,10.64 C13.0615561,10.6344915 12.8970663,10.6628518 12.7433333,10.7233333 C12.6326219,10.7662073 12.5274314,10.8221596 12.43,10.89 C12.4559744,11.0271346 12.4927557,11.1619996 12.54,11.2933333 C12.6004488,11.4600997 12.6320125,11.6359543 12.6333333,11.8133333 C12.6293763,11.9093964 12.6090862,12.0040837 12.5733333,12.0933333 C12.5401073,12.1961196 12.4816618,12.2889449 12.4033333,12.3633333 C12.3034627,12.4480198 12.1910016,12.5166211 12.07,12.5666667 C11.8820551,12.6230305 11.686059,12.6478116 11.49,12.64 C11.1862311,12.6615491 10.885717,12.5661477 10.65,12.3733333 C10.4658863,12.1950089 10.3619514,11.9496485 10.3619514,11.6933333 C10.3619514,11.4370181 10.4658863,11.1916578 10.65,11.0133333 C10.8580793,10.8115371 11.1008559,10.6489333 11.3666667,10.5333333 C11.6754709,10.3928351 12.0000104,10.2898778 12.3333333,10.2266667 C12.6625384,10.1595349 12.9973749,10.123819 13.3333333,10.12 C13.7257983,10.1166426 14.1179755,10.1422679 14.5066667,10.1966667 C14.8445134,10.2400981 15.1712484,10.3463718 15.47,10.51 C15.7517545,10.6634266 15.98324,10.8949121 16.1366667,11.1766667 C16.3041633,11.5381379 16.3786431,11.9357456 16.3533333,12.3333333 C16.3533333,12.83 16.3533333,13.42 16.3233333,14.1 C16.2933333,14.78 16.2933333,15.23 16.2933333,15.4333333 C16.2853952,15.5938612 16.316267,15.7539373 16.3833333,15.9 C16.4428925,16.0139318 16.5392178,16.1043836 16.6566667,16.1566667 C16.7693715,16.1999612 16.8892744,16.2214532 17.01,16.22 L17.45,16.22 L17.45,16.7133333 Z M14.1766667,13.28 C13.93,13.3633333 13.6866667,13.46 13.4433333,13.5666667 C13.2315499,13.6529354 13.0311614,13.7648843 12.8466667,13.9 C12.6824789,14.0244438 12.5509381,14.1868681 12.4633333,14.3733333 C12.366941,14.5821385 12.3190777,14.8100588 12.3233333,15.04 C12.2974107,15.3107159 12.3828635,15.5803133 12.56,15.7866667 C12.7127999,15.9412258 12.922735,16.0256825 13.14,16.02 C13.3491467,16.028143 13.5562356,15.9760815 13.7366667,15.87 C13.8938853,15.771626 14.0335824,15.6477012 14.15,15.5033333 L14.1766667,13.28 Z" id="Shape" fill="#4E80B3"></path>
<path d="M22,16.8533333 L17.83,16.8533333 L17.83,16.3733333 L18.1633333,16.34 C18.2621248,16.3283209 18.3593593,16.3059681 18.4533333,16.2733333 C18.5736081,16.2357837 18.6757252,16.1550399 18.74,16.0466667 C18.7962194,15.9280674 18.8236303,15.7978659 18.82,15.6666667 L18.82,8.33333333 C18.8216604,8.17228937 18.7875033,8.01288984 18.72,7.86666667 C18.6606701,7.73290615 18.5662139,7.61771564 18.4466667,7.53333333 C18.3214603,7.46079127 18.1868635,7.40583091 18.0466667,7.37 C17.8926585,7.3221386 17.7339822,7.29085031 17.5733333,7.27666667 L17.5733333,6.81333333 L20.9066667,6.64333333 L21.0066667,6.75 L21.0066667,15.5666667 C21.0011136,15.7041286 21.0309556,15.8407134 21.0933333,15.9633333 C21.1580572,16.0709044 21.256484,16.1540985 21.3733333,16.2 C21.4631323,16.2415472 21.5555516,16.2771788 21.65,16.3066667 C21.758802,16.3391829 21.8703945,16.3615014 21.9833333,16.3733333 L22,16.8533333 Z" id="Shape" fill="#4E80B3"></path>
<path d="M35.7066667,16.8533333 L31.7866667,16.8533333 L31.7866667,16.3733333 C31.8833333,16.3733333 31.9833333,16.3466667 32.09,16.34 C32.1801298,16.3345922 32.2683883,16.3119618 32.35,16.2733333 C32.4430088,16.2338499 32.5112692,16.1519373 32.5333333,16.0533333 C32.562986,15.9221394 32.5764198,15.7878012 32.5733333,15.6533333 L32.5733333,12.5733333 C32.5998248,12.2167667 32.516039,11.8606771 32.3333333,11.5533333 C32.1758028,11.3311434 31.9153041,11.2052986 31.6433333,11.22 C31.4702026,11.216815 31.2981091,11.2473842 31.1366667,11.31 C30.9933088,11.3678913 30.8568998,11.4416863 30.73,11.53 C30.619143,11.6084905 30.5193578,11.7015485 30.4333333,11.8066667 L30.2533333,12.0466667 L30.2533333,15.58 C30.2495541,15.7112058 30.2687314,15.8420627 30.31,15.9666667 C30.348109,16.0670568 30.4216137,16.1500459 30.5166667,16.2 C30.5921077,16.2427574 30.6713323,16.2784643 30.7533333,16.3066667 C30.8465798,16.3378542 30.9425606,16.3601753 31.04,16.3733333 L31.04,16.8533333 L27.29,16.8533333 L27.29,16.3733333 L27.59,16.34 C27.6809904,16.3332831 27.7701079,16.3107217 27.8533333,16.2733333 C27.9382246,16.2292346 28.0027367,16.1539704 28.0333333,16.0633333 C28.0632913,15.9333188 28.0767307,15.8000448 28.0733333,15.6666667 L28.0733333,12.5733333 C28.0979053,12.2169201 28.0142525,11.8613956 27.8333333,11.5533333 C27.6758028,11.3311434 27.4153041,11.2052986 27.1433333,11.22 C26.9702026,11.216815 26.7981091,11.2473842 26.6366667,11.31 C26.4929716,11.3671724 26.3564826,11.4410107 26.23,11.53 C26.1181693,11.6085052 26.0172837,11.7015442 25.93,11.8066667 L25.7533333,12.0466667 L25.7533333,15.58 C25.7493462,15.7103956 25.7696935,15.8403924 25.8133333,15.9633333 C25.853638,16.0642695 25.9279095,16.1479724 26.0233333,16.2 C26.099628,16.2433672 26.1800179,16.279096 26.2633333,16.3066667 C26.3565798,16.3378542 26.4525606,16.3601753 26.55,16.3733333 L26.55,16.8533333 L22.6,16.8533333 L22.6,16.3733333 L22.9333333,16.34 C23.0300943,16.3291327 23.1252119,16.3067521 23.2166667,16.2733333 C23.3373076,16.2348482 23.4401823,16.1544403 23.5066667,16.0466667 C23.5640358,15.9283486 23.5925916,15.798134 23.59,15.6666667 L23.59,11.8133333 C23.5894233,11.6690105 23.5502963,11.5274627 23.4766667,11.4033333 C23.4132739,11.2786287 23.3206359,11.1711228 23.2066667,11.09 C23.1136014,11.0313553 23.0125601,10.986448 22.9066667,10.9566667 C22.7758162,10.920216 22.6419378,10.8956717 22.5066667,10.8833333 L22.5066667,10.4033333 L25.6666667,10.23 L25.7666667,10.33 L25.7666667,11.26 L25.7933333,11.26 L26.23,10.8666667 C26.3788405,10.7314785 26.5394813,10.6098824 26.71,10.5033333 C26.9044754,10.3837947 27.115686,10.2939179 27.3366667,10.2366667 C27.6096506,10.1648106 27.8910697,10.1300537 28.1733333,10.1333333 C28.6158745,10.1185615 29.05296,10.2344993 29.43,10.4666667 C29.7512976,10.6726791 29.9978684,10.9765105 30.1333333,11.3333333 L30.1933333,11.3333333 C30.32,11.2133333 30.4766667,11.0733333 30.66,10.9133333 C30.8196912,10.7728185 30.9889912,10.6436159 31.1666667,10.5266667 C31.3752118,10.4044329 31.5995195,10.3113452 31.8333333,10.25 C32.1047648,10.1745997 32.3849645,10.1353718 32.6666667,10.1333333 C33.2398613,10.0959153 33.8009106,10.310112 34.2033333,10.72 C34.5869085,11.1875042 34.7787175,11.7831842 34.74,12.3866667 L34.74,15.5933333 C34.7339185,15.728336 34.7590115,15.8629256 34.8133333,15.9866667 C34.8683862,16.0935199 34.9628101,16.1747962 35.0766667,16.2133333 C35.1613337,16.249756 35.248165,16.2809262 35.3366667,16.3066667 C35.454376,16.3398489 35.5748808,16.3621646 35.6966667,16.3733333 L35.7066667,16.8533333 Z" id="Shape" fill="#4E80B3"></path>
<path d="M43.4166667,15.2766667 C43.2585881,15.537729 43.0718777,15.7803407 42.86,16 C42.6391513,16.2227549 42.3890913,16.4145049 42.1166667,16.57 C41.8348494,16.7313178 41.535004,16.858864 41.2233333,16.95 C40.8842269,17.0402924 40.534199,17.082924 40.1833333,17.0766667 C39.6154056,17.0889076 39.0501791,16.99508 38.5166667,16.8 C38.0729566,16.6346877 37.6695579,16.3767398 37.3333333,16.0433333 C37.0252978,15.7298606 36.7907578,15.351864 36.6466667,14.9366667 C36.4899966,14.4936285 36.4121533,14.0265687 36.4166667,13.5566667 C36.4151543,13.1144851 36.5000796,12.6762708 36.6666667,12.2666667 C36.8284702,11.8590998 37.0659876,11.4858582 37.3666667,11.1666667 C37.6893925,10.8404038 38.0749433,10.5829919 38.5,10.41 C38.9839676,10.210839 39.5033804,10.1121732 40.0266667,10.12 C40.5414774,10.1037159 41.0550684,10.1793436 41.5433333,10.3433333 C41.9182391,10.4738745 42.2596993,10.6855798 42.5433333,10.9633333 C42.7925995,11.2119037 42.9798696,11.5156467 43.09,11.85 C43.2041302,12.1962806 43.2615372,12.5587327 43.26,12.9233333 L43.26,13.35 L38.78,13.35 C38.7316293,14.0743334 38.9136468,14.7954027 39.3,15.41 C40.013345,16.1856656 41.1794085,16.3400181 42.07,15.7766667 C42.4040736,15.5458696 42.6904284,15.2527238 42.9133333,14.9133333 L43.4166667,15.2766667 Z M40.8966667,12.77 C40.8966667,12.5055556 40.8833333,12.2355556 40.8566667,11.96 C40.8377749,11.7331351 40.7918953,11.5093326 40.72,11.2933333 C40.6610313,11.1133058 40.5551818,10.9522304 40.4133333,10.8266667 C40.272872,10.7168826 40.0981582,10.6602187 39.92,10.6666667 C39.5746612,10.6708701 39.2612289,10.8695062 39.11,11.18 C38.8686063,11.6883483 38.7542201,12.2476966 38.7766667,12.81 L40.8966667,12.77 Z" id="Shape" fill="#4E80B3"></path>
<path d="M50.6166667,11.5166667 C50.6226853,11.8377613 50.5126077,12.1502396 50.3066667,12.3966667 C50.1101327,12.6457048 49.8070878,12.7867135 49.49,12.7766667 C49.1962335,12.7885485 48.9067769,12.7030006 48.6666667,12.5333333 C48.4416918,12.3675379 48.3161788,12.09894 48.3333333,11.82 C48.3295208,11.6990835 48.3407173,11.5781608 48.3666667,11.46 L48.4266667,11.22 C48.1995526,11.2375284 47.9800143,11.3095644 47.7866667,11.43 C47.5568342,11.5643328 47.3553165,11.7420759 47.1933333,11.9533333 L47.1933333,15.5733333 C47.1889242,15.7046512 47.2127968,15.8353824 47.2633333,15.9566667 C47.3163202,16.0612585 47.403306,16.1447179 47.51,16.1933333 C47.6651909,16.2648425 47.8304557,16.312061 48,16.3333333 C48.2166667,16.3666667 48.3733333,16.3833333 48.47,16.39 L48.47,16.87 L44.05,16.87 L44.05,16.3733333 L44.3833333,16.3366667 C44.4804832,16.3235607 44.576371,16.3023762 44.67,16.2733333 C44.7915737,16.2385229 44.8952905,16.158649 44.96,16.05 C45.0179602,15.9260634 45.0453921,15.7900469 45.04,15.6533333 L45.04,11.8133333 C45.0413279,11.6645535 45.0021509,11.5182159 44.9266667,11.39 C44.8579923,11.2726882 44.7661214,11.1706094 44.6566667,11.09 C44.5636014,11.0313553 44.4625601,10.986448 44.3566667,10.9566667 C44.2257485,10.9205105 44.0918966,10.895971 43.9566667,10.8833333 L43.9566667,10.4033333 L47.1033333,10.23 L47.2033333,10.33 L47.2033333,11.2866667 L47.2266667,11.2866667 C47.5019062,10.9604919 47.8283963,10.6812866 48.1933333,10.46 C48.5153557,10.2656996 48.8839058,10.1620449 49.26,10.16 C49.6312689,10.14065 49.9937569,10.2771871 50.26,10.5366667 C50.5070101,10.8013616 50.6357605,11.1551244 50.6166667,11.5166667 Z" id="Shape" fill="#4E80B3"></path>
<path d="M59.4833333,17.11 C58.8262798,17.1157975 58.173581,17.0028739 57.5566667,16.7766667 C56.9750556,16.5644914 56.4430266,16.2355183 55.9933333,15.81 C55.546146,15.3755855 55.1952312,14.8520524 54.9633333,14.2733333 C54.7096661,13.6373884 54.5828406,12.957966 54.59,12.2733333 C54.5838643,11.5830696 54.7117861,10.8981786 54.9666667,10.2566667 C55.209553,9.65331807 55.5724425,9.1055817 56.0333333,8.64666667 C56.4948319,8.19396273 57.0453548,7.84208205 57.65,7.61333333 C58.2934784,7.36643299 58.9774619,7.24207236 59.6666667,7.24666667 C60.1469531,7.2405861 60.6254878,7.30573871 61.0866667,7.44 C61.4599688,7.54592588 61.821763,7.68885693 62.1666667,7.86666667 L62.5766667,7.50333333 L63.15,7.50333333 L63.21,10.92 L62.63,10.92 C62.4057722,10.0764057 62.0008711,9.29162565 61.4433333,8.62 C61.0130468,8.14393468 60.398293,7.87665042 59.7566667,7.88666667 C58.9718201,7.86238512 58.2414277,8.2864005 57.8733333,8.98 C57.4422222,9.71111111 57.2266667,10.7344444 57.2266667,12.05 C57.2142355,12.6914433 57.2882337,13.3316397 57.4466667,13.9533333 C57.5613227,14.4088034 57.7566284,14.8400564 58.0233333,15.2266667 C58.2585246,15.5434971 58.5689992,15.7966886 58.9266667,15.9633333 C59.2899006,16.1230116 59.6832621,16.2025934 60.08,16.1966667 C60.6664761,16.2051677 61.2409764,16.0303704 61.7233333,15.6966667 C62.2658919,15.2923067 62.7140245,14.7747932 63.0366667,14.18 L63.6066667,14.5133333 C63.4284523,14.8808261 63.2116789,15.228334 62.96,15.55 C62.7198726,15.8508389 62.4368507,16.114768 62.12,16.3333333 C61.7663642,16.5773135 61.3789254,16.7682253 60.97,16.9 C60.4884323,17.0471192 59.9868092,17.1179763 59.4833333,17.11 L59.4833333,17.11 Z" id="Shape" fill="#4E80B3"></path>
<path d="M72.74,16.8533333 L68.7766667,16.8533333 L68.7766667,16.3733333 L69.0866667,16.34 C69.1776571,16.3332831 69.2667745,16.3107217 69.35,16.2733333 C69.4377014,16.2289927 69.5063796,16.154394 69.5433333,16.0633333 C69.5864222,15.9357132 69.6056317,15.8012469 69.6,15.6666667 L69.6,12.5666667 C69.6270426,12.2093561 69.5382068,11.852844 69.3466667,11.55 C69.1750022,11.3267494 68.9045773,11.2021296 68.6233333,11.2166667 C68.4566405,11.2152933 68.2909335,11.2423476 68.1333333,11.2966667 C67.9749042,11.3531874 67.8246978,11.4305325 67.6866667,11.5266667 C67.5737577,11.6037486 67.4707617,11.6944298 67.38,11.7966667 C67.3033333,11.89 67.24,11.9733333 67.1866667,12.0433333 L67.1866667,15.58 C67.1810087,15.7115824 67.201399,15.8429865 67.2466667,15.9666667 C67.292152,16.0677531 67.3710015,16.1501332 67.47,16.2 C67.5516173,16.2467969 67.639033,16.2826597 67.73,16.3066667 C67.8327654,16.3361548 67.9374645,16.3584312 68.0433333,16.3733333 L68.0433333,16.8533333 L64.02,16.8533333 L64.02,16.3733333 L64.3533333,16.34 C64.4510563,16.3284245 64.5471974,16.3060661 64.64,16.2733333 C64.7616632,16.236803 64.8651656,16.1559045 64.93,16.0466667 C64.9813047,15.9267826 65.0052188,15.796963 65,15.6666667 L65,8.3 C64.997107,8.14482056 64.9631024,7.99179958 64.9,7.85 C64.8462134,7.70573163 64.7496954,7.58130478 64.6233333,7.49333333 C64.5049318,7.42549689 64.3749419,7.380283 64.24,7.36 C64.0925102,7.32998362 63.9433539,7.30883458 63.7933333,7.29666667 L63.7933333,6.81333333 L67.0766667,6.64333333 L67.1766667,6.75 L67.1766667,11.2866667 L67.2033333,11.2866667 L67.6666667,10.88 C67.8190064,10.7447259 67.9829743,10.6231442 68.1566667,10.5166667 C68.3547436,10.3956127 68.5691447,10.3035662 68.7933333,10.2433333 C69.0691733,10.1680011 69.354068,10.1309873 69.64,10.1333333 C70.2394707,10.0863581 70.8282639,10.311593 71.2433333,10.7466667 C71.6166771,11.2002677 71.8079669,11.7765137 71.78,12.3633333 L71.78,15.5933333 C71.7735825,15.7272812 71.7987008,15.860865 71.8533333,15.9833333 C71.911958,16.0906179 72.0080929,16.1725107 72.1233333,16.2133333 C72.2084621,16.251466 72.2965248,16.2826781 72.3866667,16.3066667 C72.5041016,16.3360648 72.6232082,16.3583277 72.7433333,16.3733333 L72.74,16.8533333 Z" id="Shape" fill="#4E80B3"></path>
<path d="M80.08,11.09 C80.4052221,11.3933804 80.6600779,11.7642867 80.8266667,12.1766667 C80.9999342,12.6136238 81.087089,13.0799585 81.0833333,13.55 C81.0866218,14.0218555 81.0006678,14.4900785 80.83,14.93 C80.6679257,15.351682 80.4140057,15.7319927 80.0866667,16.0433333 C79.729225,16.3791081 79.3057984,16.6367967 78.8433333,16.8 C78.3131621,16.9843783 77.7545578,17.0735293 77.1933333,17.0633333 C76.6896308,17.0684008 76.1885161,16.9906999 75.71,16.8333333 C75.2682491,16.6857014 74.8611176,16.4498146 74.5133333,16.14 C74.1739797,15.8383379 73.9043989,15.4663847 73.7233333,15.05 C73.5248217,14.5915636 73.4259728,14.0961831 73.4333333,13.5966667 C73.4242481,13.1145816 73.5103353,12.6354381 73.6866667,12.1866667 C73.8598516,11.7707809 74.1201386,11.3968314 74.45,11.09 C74.7990337,10.7660404 75.2141094,10.5215437 75.6666667,10.3733333 C76.7145648,10.0355611 77.8421018,10.0355611 78.89,10.3733333 C79.3309177,10.5295701 79.735694,10.7733429 80.08,11.09 L80.08,11.09 Z M78.3933333,15.6666667 C78.4996672,15.37727 78.5712792,15.0762761 78.6066667,14.77 C78.6565753,14.3630617 78.6799581,13.9533075 78.6766667,13.5433333 C78.6733914,13.1901711 78.6511371,12.8374401 78.61,12.4866667 C78.5827509,12.1676127 78.5167082,11.8530703 78.4133333,11.55 C78.3256521,11.2940224 78.1742271,11.0645906 77.9733333,10.8833333 C77.5388119,10.5607893 76.942169,10.5689811 76.5166667,10.9033333 C76.320553,11.0873412 76.1718779,11.3160722 76.0833333,11.57 C75.9825238,11.8539715 75.9186663,12.1497324 75.8933333,12.45 C75.8565188,12.7998882 75.8387148,13.1515161 75.84,13.5033333 C75.84,13.9833333 75.84,14.38 75.8866667,14.6933333 C75.9185052,15.0174458 75.9936176,15.3358327 76.11,15.64 C76.1956723,15.8904458 76.3463725,16.1136202 76.5466667,16.2866667 C76.9625833,16.590704 77.5274167,16.590704 77.9433333,16.2866667 C78.146084,16.1239656 78.3014832,15.9098601 78.3933333,15.6666667 Z" id="Shape" fill="#4E80B3"></path><path d="M86.1033333,16.8533333 L81.9333333,16.8533333 L81.9333333,16.3733333 L82.2666667,16.34 C82.3634947,16.3295222 82.4586589,16.3071306 82.55,16.2733333 C82.6719053,16.2339369 82.7766167,16.1539326 82.8466667,16.0466667 C82.9090541,15.9252456 82.9389134,15.7897303 82.9333333,15.6533333 L82.9333333,11.8133333 C82.9373862,11.6714192 82.900345,11.5313571 82.8266667,11.41 C82.7614202,11.2977838 82.6713394,11.2020018 82.5633333,11.13 C82.4510629,11.0623667 82.3298908,11.0107564 82.2033333,10.9766667 C82.0608263,10.9326956 81.9146972,10.9014619 81.7666667,10.8833333 L81.7666667,10.4033333 L84.9966667,10.23 L85.0966667,10.33 L85.0966667,15.5666667 C85.0923336,15.7045745 85.1269945,15.8409071 85.1966667,15.96 C85.2638759,16.0674997 85.3629099,16.1513874 85.48,16.2 C85.5736984,16.2431575 85.6706683,16.2788247 85.77,16.3066667 C85.8790919,16.3380047 85.99058,16.3603023 86.1033333,16.3733333 L86.1033333,16.8533333 Z M85.14,7.85333333 C85.142432,8.18070632 85.0010799,8.49265581 84.7533333,8.70666667 C84.232852,9.17734656 83.4404813,9.17734656 82.92,8.70666667 C82.6722535,8.49265581 82.5309014,8.18070632 82.5333333,7.85333333 C82.5322438,7.52624654 82.6733538,7.21483153 82.92,7 C83.1686509,6.76605081 83.4986316,6.63812352 83.84,6.64333333 C84.1805397,6.63721804 84.5098124,6.76533504 84.7566667,7 C85.0033255,7.21594056 85.1433461,7.52885616 85.14,7.85666667 L85.14,7.85333333 Z" id="Shape" fill="#4E80B3"></path><path d="M90.4766667,17.0633333 C89.9248612,17.0748429 89.3756682,16.9844407 88.8566667,16.7966667 C88.4227901,16.6415737 88.0280321,16.3935701 87.7,16.07 C87.3996283,15.7529389 87.1721074,15.3741167 87.0333333,14.96 C86.8805228,14.512704 86.8049988,14.0426518 86.81,13.57 C86.8075316,13.1200008 86.9006996,12.6746122 87.0833333,12.2633333 C87.4431636,11.4095581 88.1352159,10.73917 89,10.4066667 C89.5035318,10.2111039 90.0398606,10.1137953 90.58,10.12 C91.2505039,10.0854605 91.9168473,10.2439485 92.5,10.5766667 C92.9407225,10.8318976 93.2105268,11.3040552 93.2066667,11.8133333 C93.2198311,12.090854 93.1308967,12.3635862 92.9566667,12.58 C92.7232743,12.7973911 92.4072259,12.9031458 92.09,12.87 C91.7964405,12.8797824 91.5072397,12.796987 91.2633333,12.6333333 C91.0533372,12.4974252 90.9275495,12.26346 90.93,12.0133333 C90.9304837,11.7956162 90.9665133,11.5794388 91.0366667,11.3733333 C91.0923526,11.2162965 91.1336339,11.0545184 91.16,10.89 C91.1156109,10.8150552 91.0524133,10.7530067 90.9766667,10.71 C90.8671756,10.6598133 90.7468017,10.6380314 90.6266667,10.6466667 C90.4374541,10.6447648 90.2511212,10.6930733 90.0866667,10.7866667 C89.8956506,10.907554 89.7385059,11.0750221 89.63,11.2733333 C89.4712189,11.5475149 89.3586054,11.8459408 89.2966667,12.1566667 C89.2101168,12.595687 89.1698963,13.0425808 89.1766667,13.49 C89.1440589,14.1647477 89.3376217,14.8310727 89.7266667,15.3833333 C90.0215845,15.8235652 90.513517,16.0913259 91.0433333,16.1 C91.4571637,16.1193921 91.8659023,16.002275 92.2066667,15.7666667 C92.5303515,15.5178745 92.8002326,15.2060371 93,14.85 L93.4933333,15.1833333 C93.35812,15.4493156 93.1925739,15.6987533 93,15.9266667 C92.8075906,16.154647 92.5830129,16.3533984 92.3333333,16.5166667 C92.070278,16.689811 91.7856216,16.8276564 91.4866667,16.9266667 C91.159488,17.0260012 90.8184789,17.0721444 90.4766667,17.0633333 Z" id="Shape" fill="#4E80B3"></path><path d="M100.976667,15.2766667 C100.817383,15.5377862 100.629563,15.7803875 100.416667,16 C100.193745,16.2195014 99.9413166,16.4068595 99.6666667,16.5566667 C99.3845515,16.7173839 99.084778,16.8448995 98.7733333,16.9366667 C98.4342269,17.0269591 98.084199,17.0695907 97.7333333,17.0633333 C97.1598252,17.0776641 96.5887519,16.9838045 96.05,16.7866667 C95.6110316,16.6240284 95.2112424,16.3707529 94.8766667,16.0433333 C94.5686311,15.7298606 94.3340911,15.351864 94.19,14.9366667 C94.0333299,14.4936285 93.9554866,14.0265687 93.96,13.5566667 C93.9584876,13.1144851 94.0434129,12.6762708 94.21,12.2666667 C94.3718035,11.8590998 94.6093209,11.4858582 94.91,11.1666667 C95.2327258,10.8404038 95.6182767,10.5829919 96.0433333,10.41 C96.5273009,10.210839 97.0467137,10.1121732 97.57,10.12 C98.0848108,10.1037159 98.5984017,10.1793436 99.0866667,10.3433333 C99.4552006,10.4769135 99.7905997,10.6883854 100.07,10.9633333 C100.319266,11.2119037 100.506536,11.5156467 100.616667,11.85 C100.730797,12.1962806 100.788204,12.5587327 100.786667,12.9233333 L100.786667,13.35 L96.3333333,13.35 C96.2849626,14.0743334 96.4669801,14.7954027 96.8533333,15.41 C97.5666783,16.1856656 98.7327418,16.3400181 99.6233333,15.7766667 C99.957407,15.5458696 100.243762,15.2527238 100.466667,14.9133333 L100.976667,15.2766667 Z M98.4566667,12.77 C98.4566667,12.5055556 98.4433333,12.2355556 98.4166667,11.96 C98.398404,11.7327481 98.3513612,11.5087346 98.2766667,11.2933333 C98.2208314,11.1118136 98.1144614,10.9499464 97.97,10.8266667 C97.8308382,10.7168582 97.6571478,10.660143 97.48,10.6666667 C97.1364247,10.6670879 96.8221532,10.8602876 96.6666667,11.1666667 C96.425273,11.675015 96.3108868,12.2343633 96.3333333,12.7966667 L98.4566667,12.77 Z" id="Shape" fill="#4E80B3"></path></g></g></svg>